<?xml version="1.0" standalone="no"?>
<!DOCTYPE svg PUBLIC "-//W3C//DTD SVG 1.1//EN" "http://www.w3.org/Graphics/SVG/1.1/DTD/svg11.dtd" >
<svg xmlns="http://www.w3.org/2000/svg">
<metadata>
This is a custom SVG webfont generated by Font Squirrel.
Copyright   : Copyright c Ivan Zeifert works 2005 All rights reserved
Designer    : Ivan Zeifert
Foundry     : Ivan Zeifert works
Foundry URL : httpwwwgliphmakercom
</metadata>
<defs>
<font id="AcquestScriptRegular" horiz-adv-x="516" >
<font-face units-per-em="2048" ascent="1638" descent="-410" />
<missing-glyph horiz-adv-x="591" />
<glyph unicode=" "  horiz-adv-x="591" />
<glyph unicode="&#x09;" horiz-adv-x="591" />
<glyph unicode="&#xa0;" horiz-adv-x="591" />
<glyph unicode="!" horiz-adv-x="512" d="M190 51q4 68 64 72q66 -6 72 -72q-2 -68 -72 -71q-60 5 -64 71zM190 889q-4 135 64 133q76 2 72 -133l-27 -639q-43 -72 -84 0z" />
<glyph unicode="&#x22;" horiz-adv-x="860" d="M193 936q0 90 59 86q57 0 53 -84q-4 -78 -31 -127q-27 -53 -28 -82h-23l2 19l-10 63q-20 82 -22 125zM395 936q-4 78 60 86q57 -6 51 -84q-4 -78 -29 -127q-27 -53 -28 -82h-23l2 19l-10 63q-21 82 -23 125z" />
<glyph unicode="#" horiz-adv-x="907" d="M61 287v69h252v142h-252v65h254l-2 361h74v-359h145v359h62v-359h252v-67h-252v-142h252v-69h-252v-287h-62v287h-145v-287h-76v287h-250zM387 356h141v142h-141v-142z" />
<glyph unicode="$" horiz-adv-x="720" d="M12 197q-20 66 2.5 106.5t77.5 40.5q41 0 75 -26.5t48 -65.5q10 -31 3 -52.5t-34 -27.5l-18 -4q-14 -14 -6 -37q10 -33 55 -56.5t102 -23.5v445q-78 20 -114.5 41.5t-61.5 48.5q-29 29 -35 76t9 90q16 53 49 86.5t67 52.5q39 23 86 33v59h70v-59q68 -12 112 -48t89 -120 l-62 -35q-16 47 -39.5 73.5t-46 40t-38 15.5t-15.5 0v-301q12 -6 49 -18.5t60 -20.5q66 -23 112.5 -62.5t57.5 -87.5q20 -70 -4.5 -141.5t-86.5 -126.5q-51 -45 -101 -65.5t-87 -24.5v-63h-70v61q-55 0 -105 15.5t-90 42t-69 62.5t-41 77zM244 750q-16 -53 2 -103.5 t71 -75.5v277q-46 -16 -73 -98zM387 61q16 8 31.5 15.5t40.5 29.5q25 20 38 54.5t18 73t1 77.5t-14 72q-18 39 -45 62.5t-70 31.5v-416z" />
<glyph unicode="%" horiz-adv-x="1075" d="M2 790.5q4 71.5 49 127.5q14 23 33.5 37t36.5 30q57 43 119 43q59 0 109 -31.5t85 -87.5q8 -16 13.5 -41.5t5.5 -57.5t-4.5 -64.5t-16.5 -61.5q-12 -23 -29.5 -49.5t-48.5 -44.5q-29 -20 -60.5 -27.5t-72.5 -7.5q-121 0 -184 104q-39 60 -35 131.5zM139 819 q-10 -100 27 -160q29 -45 74 -45q23 0 54.5 16.5t47.5 43.5q20 33 18 75t-2 95q-10 43 -26.5 68.5t-28.5 39.5q-14 14 -24.5 17.5t-26.5 3.5t-31.5 -6t-25.5 -19q-8 -10 -14.5 -17t-12.5 -20q-23 -39 -29 -92zM231 0l523 1026h96l-522 -1026h-97zM579.5 235.5 q4.5 71.5 49.5 126.5q14 23 33.5 37.5t35.5 30.5q57 43 119 43q59 0 109.5 -31.5t85.5 -87.5q8 -16 13 -41.5t5 -57.5t-4 -64.5t-16 -61.5q-12 -23 -29.5 -49.5t-48.5 -44.5q-29 -20 -60.5 -27.5t-72.5 -7.5q-121 0 -185 104q-39 60 -34.5 131.5zM717 264q-10 -100 26 -160 q29 -45 74 -45q23 0 54.5 16.5t48.5 43.5q20 33 18 75t-2 95q-10 43 -26.5 68.5t-28.5 39.5q-14 14 -24.5 17.5t-27.5 3.5q-16 0 -31.5 -6t-25.5 -19q-8 -10 -14 -17t-13 -20q-22 -39 -28 -92z" />
<glyph unicode="&#x26;" horiz-adv-x="890" d="M74 225q-10 74 24 152q37 80 111 153q29 27 63.5 53.5t94.5 73.5q-47 57 -67.5 120t-20.5 119t18 101t49 72q45 45 89 58.5t82 7t69.5 -23.5t52.5 -34q27 -23 40 -53.5t16 -60t0 -56t-11 -39.5q-25 -55 -85 -111.5t-142 -103.5l291 -422q35 41 49 67t30 64l50 -22 q-25 -53 -42.5 -87t-50.5 -73l93 -141l-48 -37l-92 127q-61 -55 -134 -93t-191 -36q-141 0 -232.5 63.5t-105.5 161.5zM206 279.5q1 -66.5 30.5 -116.5t87 -79t139.5 -29q76 2 135 41t107 82l-306 434q-35 -29 -58.5 -49t-40.5 -39.5t-31.5 -44t-28.5 -57.5 q-35 -76 -34 -142.5zM350 854q6 -45 23.5 -88t46.5 -68q27 20 43 33.5t28.5 27t25.5 28t32 36.5q47 66 24 131q0 16 -18 39t-47 36t-62.5 10t-66.5 -40q-23 -20 -29 -60t0 -85z" />
<glyph unicode="'" horiz-adv-x="294" d="M141 727q2 8 2 13t4 69q8 115 27 162q20 49 64 49q37 0 36 -39q0 -39 -36 -113l-31 -59q-18 -39 -43 -82h-23z" />
<glyph unicode="(" horiz-adv-x="462" d="M135 360q-27 172 25 353q84 221 237 344l35 -23q-123 -143 -170 -358q-25 -123 -18 -244q2 -133 28 -248q23 -106 121 -319l-43 2q-90 141 -135 237q-62 123 -80 256z" />
<glyph unicode=")" horiz-adv-x="503" d="M109 1034l34 23q154 -123 238 -344q51 -180 25 -353q-39 -150 -80 -243q-45 -121 -129 -250l-50 -2q98 213 121 319q27 115 29 248q6 121 -18 244q-47 215 -170 358z" />
<glyph unicode="*" horiz-adv-x="747" d="M123 842q78 18 188 67l6 25q-98 47 -190 70q0 70 57 100q70 -78 150 -135l16 12q-8 72 -41 195q29 12 60 12q33 0 55 -12q-25 -96 -33 -195l23 -18q125 111 143 135q51 -29 59 -94q-98 -25 -184 -76v-15q123 -53 184 -65q-8 -63 -57 -100q-84 84 -149 131l-23 -15 q-2 -35 37 -192q-31 -10 -59 -10q-29 0 -58 10q35 123 37 194l-14 11q-57 -43 -142 -132q-59 36 -65 97z" />
<glyph unicode="+" d="M84 199v67h145v154h68v-154h154v-67h-154v-146h-68v146h-145z" />
<glyph unicode="," horiz-adv-x="540" d="M184 -219q109 86 103 149q-6 29 -31 50q-37 29 -39 63q-6 33 14 57q14 23 45 23q59 0 72 -86q6 -72 -35 -146q-39 -74 -114 -129z" />
<glyph unicode="-" d="M84 199v67h367v-67h-367z" />
<glyph unicode="." horiz-adv-x="505" d="M184 51q4 68 64 72q66 -6 71 -72q-2 -68 -71 -71q-60 5 -64 71z" />
<glyph unicode="/" horiz-adv-x="573" d="M-82 -244l723 1411l92 -4l-717 -1407h-98z" />
<glyph unicode="0" horiz-adv-x="819" d="M7 403.5q-3 90.5 20 174.5q29 94 81 166.5t121 117.5q45 29 93.5 42.5t95.5 13.5q111 0 195.5 -60.5t125.5 -181.5q33 -98 30 -200.5t-36 -203.5q-29 -78 -69.5 -132t-92.5 -89q-90 -51 -196 -51q-111 0 -202 63.5t-138 174.5q-25 75 -28 165.5zM191.5 444.5 q1.5 -59.5 10.5 -114t25 -92.5q31 -76 81 -117t106 -41q59 0 106 48t64 110q8 37 13 92t4 115.5t-9 121t-25 109.5q-29 88 -71.5 126t-89.5 38q-47 2 -101.5 -41t-83.5 -125q-16 -49 -23.5 -109.5t-6 -120z" />
<glyph unicode="1" horiz-adv-x="569" d="M0 498q53 41 91 69.5t79 67.5q37 35 63.5 59.5t51 54t54.5 69.5t73 106h39l-9 -924l-168 2l27 633q-59 -66 -115.5 -106t-136.5 -80z" />
<glyph unicode="2" horiz-adv-x="704" d="M4 20q12 57 25.5 99.5t34 76t50 60.5t76.5 51l142 82q98 55 134 126t7 163q-23 78 -75 125t-115 47q-27 0 -50.5 -11.5t-41 -27.5t-25.5 -36.5t-2 -41.5q2 -10 11 -20.5t15 -12.5q4 0 10.5 -5t20.5 -7q23 -8 40.5 -28.5t21.5 -43.5q14 -39 -6.5 -65.5t-61.5 -26.5 q-47 0 -87 34t-56 89q-18 53 -8 103.5t42.5 88.5t83 61.5t115.5 23.5q113 0 198 -70t118 -176q18 -59 15 -107.5t-30.5 -90.5t-81 -77.5t-133.5 -70.5q-49 -20 -83 -35.5t-60.5 -30t-48 -30t-41.5 -33.5q33 4 74.5 -5.5t80.5 -25.5q45 -16 70 -27.5t42 -18.5t34.5 -11 t48.5 -9q25 0 59.5 26t69.5 71l43 -37l-16 -19q-37 -43 -66 -72.5t-51.5 -48t-43 -25.5t-42.5 -7q-33 0 -69 8t-75 23q-47 14 -70.5 25t-38.5 18.5t-30.5 10.5t-44.5 3q-31 0 -47 -19.5t-31 -62.5z" />
<glyph unicode="3" horiz-adv-x="720" d="M12 197q-20 66 2.5 106.5t77.5 40.5q41 0 75 -26.5t48 -65.5q10 -31 3 -52.5t-34 -27.5l-18 -4q-14 -14 -6 -37q10 -33 59 -57.5t107 -24.5q37 0 70.5 16.5t56.5 40.5q20 25 34.5 60t20.5 71.5t5 74.5t-11 71q-14 47 -48 74.5t-81 27.5q-4 0 -15.5 -2t-25.5 -2l-19 49 q27 4 42.5 8.5t47.5 8.5q47 41 70 95t6 108q-14 41 -50 70.5t-81 29.5q-47 0 -84 -35t-67 -94l-62 35q88 168 248 168q82 0 143.5 -50.5t81.5 -121.5q14 -43 2 -90.5t-53 -81.5q-14 -10 -24.5 -18.5t-47.5 -31.5q74 -16 120 -53t69 -108q20 -70 -2.5 -142.5t-96.5 -134.5 q-51 -45 -114.5 -68.5t-128.5 -23.5q-55 0 -107.5 15.5t-95.5 42t-74 62.5t-43 77z" />
<glyph unicode="4" horiz-adv-x="815" d="M0 188l573 736h39l-2 -650h49q25 2 41.5 3.5t32 6.5t32.5 14t46 26l4 -7l-63 -124h-131l-5 -381l-172 -2l25 376h-169q-71 0 -124 1t-94 1h-82zM176 266h287l22 414z" />
<glyph unicode="5" horiz-adv-x="669" d="M-2 271.5q10 35.5 57 35.5q41 0 76 -19.5t57 -58.5q16 -31 15.5 -52t-23.5 -27q-10 -10 -12 -13.5t6 -17.5q18 -35 64.5 -53.5t97.5 -18.5q43 0 75.5 19.5t47.5 62.5q23 57 17.5 123.5t-40.5 130.5q-35 59 -91 94t-124 35q-20 0 -34.5 -5t-24.5 -11q-8 -2 -17 -2h-12 q-23 0 -31 18q-14 25 -8 40t41 40l-4 330l43 -4l2 -11q61 -29 122.5 -42t98.5 -13q43 0 66.5 15.5t38.5 54.5l47 -23q-25 -80 -66 -112.5t-106 -32.5q-35 0 -71 4t-97 20v-186q12 4 23 4h18q51 0 102 -15.5t98.5 -43t87.5 -65.5t66 -85q43 -78 39 -153.5t-55 -135.5 q-43 -47 -96.5 -72.5t-129.5 -25.5q-53 0 -104 13.5t-97 38t-84 58t-61 74.5q-28 52 -18 87.5z" />
<glyph unicode="6" horiz-adv-x="739" d="M6 541q4 90 24.5 185t55.5 187q33 98 86 185q117 199 299 307t399 108q166 0 295 -69.5t187 -190.5q14 -33 15 -58.5t-3 -53.5l-31 16q2 25 1 46.5t-15 49.5q-45 98 -157.5 155.5t-254.5 57.5q-139 0 -258 -53t-214 -151.5t-161.5 -236.5t-97.5 -306 q-12 -66 -20.5 -136.5t-5.5 -146.5q14 55 35.5 94t47.5 66q29 29 66 41t84 12q84 0 157.5 -50t110.5 -128q37 -82 33 -171t-51 -161q-27 -39 -61.5 -67.5t-73.5 -44.5q-29 -12 -57.5 -19.5t-61.5 -7.5q-102 0 -186 57.5t-136 165.5q-31 66 -43 147t-8 171zM189.5 279.5 q3.5 -62.5 25.5 -109.5q23 -49 66 -79t96 -30q33 0 58.5 14.5t43 39t27.5 54.5t14 58q10 72 8 134.5t-28 117.5q-23 47 -52.5 69.5t-76.5 22.5q-57 0 -103 -49q-43 -45 -65 -121q-17 -59 -13.5 -121.5z" />
<glyph unicode="7" horiz-adv-x="686" d="M10 758q-20 41 1.5 75.5t80.5 59.5q18 53 17.5 90t-25.5 90h35q14 -27 22.5 -46t13.5 -36.5t7 -36t2 -43.5h31q18 0 33.5 -2t35 -8t45 -19.5t66.5 -35.5q41 -23 59.5 -29t42.5 -6q102 0 115 113h49q-10 -72 -18.5 -123t-14.5 -86q-18 -70 -41.5 -169.5t-48 -216 t-50.5 -241.5t-48.5 -246t-41 -228.5t-28.5 -188.5h-200q82 283 139 481t96 331.5t61.5 214t36 130t20.5 78t15 59.5q-25 -12 -38 -16.5t-42 -4.5q-27 2 -47 5.5t-39.5 12.5t-43 23.5t-58.5 36.5q-33 23 -51.5 31t-34.5 8h-7q-5 0 -10 -4q-6 -41 -30.5 -61.5t-57.5 -20.5 q-35 0 -49 29z" />
<glyph unicode="8" horiz-adv-x="704" d="M8 987q14 98 105.5 161.5t232.5 63.5q86 0 160 -25.5t168 -86.5l-17 -31q-80 49 -138 68.5t-122 19.5q-82 0 -139 -28.5t-87 -79t-31 -117t34 -141.5q14 -35 30.5 -62t37 -51.5t48 -47t66.5 -48.5q102 45 132 90t4 106q-18 41 -60.5 66.5t-85.5 25.5q-16 0 -29.5 -3 t-33.5 -19l-17 20q23 25 56.5 39.5t87.5 14.5q35 0 69.5 -11.5t64 -31t53.5 -45t36 -52.5q35 -76 -16.5 -133t-202.5 -110q82 -47 131 -93.5t73 -101.5q25 -55 25 -107.5t-21.5 -95.5t-64.5 -75.5t-102 -47.5q-18 -6 -48 -12t-53 -6q-117 0 -201.5 49t-123.5 137 q-49 111 6 201t196 148q23 8 38.5 15t31.5 11l-31 21q-35 27 -66.5 50t-60.5 50q-74 74 -110 154q-35 77 -25 151zM160.5 345q-23.5 -75 11.5 -150q27 -61 83 -98.5t120 -37.5q12 0 32.5 2t30.5 7q70 23 76 108.5t-43 196.5q-10 23 -19.5 40t-22.5 33.5t-30.5 32t-44.5 35.5 q-35 -10 -52 -20.5t-46 -26.5q-72 -47 -95.5 -122z" />
<glyph unicode="9" horiz-adv-x="727" d="M-357 -195q-3 41 17 95l33 -19q-10 -35 -11 -62.5t15 -58.5q35 -74 120 -118.5t181 -44.5q98 0 183 45t150.5 126.5t111.5 195.5t69 251q8 61 13 116.5t1 125.5q-16 -41 -32.5 -64.5t-38.5 -48.5q-29 -31 -73 -46t-91 -15q-86 0 -154.5 41t-105.5 116q-35 74 -38 151 t25 144q25 53 64 94t88 64q29 16 62.5 22.5t68.5 6.5q98 0 184 -59.5t133 -157.5q31 -63 46.5 -142.5t14.5 -166.5t-20.5 -178t-56.5 -179q-47 -113 -113.5 -204t-146.5 -154.5t-171 -98.5t-187 -35q-109 0 -192 44t-124 126q-22 47 -25 88zM136 612q1 -43 10.5 -84 t25.5 -75q23 -47 61.5 -76t85.5 -29q27 0 49.5 12.5t45.5 34.5q12 10 21 24.5t18 29.5q14 33 22 71.5t7 79.5t-10 81t-26 73q-47 104 -135 104h-8q-35 4 -75 -18.5t-64 -69.5q-16 -35 -22.5 -75t-5.5 -83z" />
<glyph unicode=":" horiz-adv-x="505" d="M184 51q4 68 64 72q66 -6 71 -72q-2 -68 -71 -71q-60 5 -64 71zM184 395q4 68 64 72q66 -6 71 -72q-2 -68 -71 -71q-60 5 -64 71z" />
<glyph unicode=";" horiz-adv-x="540" d="M184 -219q109 86 103 149q-6 29 -31 50q-37 29 -39 63q-6 33 14 57q14 23 45 23q59 0 72 -86q6 -72 -35 -146q-39 -74 -114 -129zM215 395q4 68 64 72q66 -6 71 -72q-2 -68 -71 -71q-60 5 -64 71z" />
<glyph unicode="=" d="M84 127v68h367v-68h-367zM84 268v68h367v-68h-367z" />
<glyph unicode="?" horiz-adv-x="638" d="M106 823q23 92 89.5 146.5t128.5 54.5q188 -2 217 -190q8 -109 -26 -190t-103 -165q-35 -61 -40 -107t-5 -79q-6 -45 -43 -41q-35 -4 -45 41q-4 33 0 80t30 94q78 121 93.5 211t11.5 186q-10 104 -92 105q-82 -6 -111 -109q37 -6 14 -65q-12 -47 -59 -70q-74 -25 -60 98z M260 51q4 68 64 72q66 -6 71 -72q-2 -68 -71 -71q-60 5 -64 71z" />
<glyph unicode="@" horiz-adv-x="1007" d="M90 242q0 90 24.5 175t78.5 140q66 74 159.5 116t210.5 44q100 0 173 -37t119 -93.5t66.5 -124t18.5 -128.5q0 -63 -4 -110.5t-29 -114.5q-12 -33 -34.5 -55.5t-48 -36t-52.5 -17.5t-45 0q-35 0 -65.5 14.5t-47.5 36.5q-8 12 -9 20.5t-5 26.5q-29 -59 -71 -78.5 t-85 -19.5q-39 0 -78.5 25.5t-68.5 66.5q-33 47 -40 107.5t9 109.5q14 35 39 66t53 51q25 20 53.5 29.5t55.5 9.5q37 0 62.5 -14.5t43.5 -40.5q4 -8 10.5 -16.5t12.5 -20.5l33 80h92l-12 -301q-6 -49 4 -64q14 -20 45 -20q31 -4 53.5 18.5t35.5 60t20 87t7 98.5 q0 51 -20 107.5t-60 104.5t-97.5 79.5t-133.5 31.5q-59 0 -107 -12t-86 -30.5t-64.5 -38t-41.5 -33.5q-66 -70 -87 -157t-14 -170t35.5 -150.5t65.5 -100.5q41 -45 120 -87t175 -50q31 -4 77 4t91 25.5t84 41t55 52.5l45 -47q-25 -25 -63.5 -49.5t-84.5 -44t-97.5 -30.5 t-104.5 -11q-49 0 -106.5 15t-108.5 38.5t-93 53.5t-60 58q-51 51 -77 135.5t-26 174.5zM385 215q2 -35 11.5 -65.5t21.5 -49.5q23 -29 55 -28q23 0 46.5 9t35.5 42q4 16 6 38.5t6 39.5q8 57 4 103t-24 77q-23 35 -60 35h-6q-23 -4 -39 -22.5t-30 -43.5q-18 -29 -23.5 -64.5 t-3.5 -70.5z" />
<glyph unicode="A" horiz-adv-x="1681" d="M-150 355q16 50 89 51q27 0 57.5 -11.5t60 -30t55 -43t42.5 -53.5q21 -37 20 -66q0 -12 -3 -23q-11 -38 -56 -38h-17q-31 0 -18 -16q8 -14 30.5 -27.5t53.5 -22.5t68.5 -15.5t76.5 -6.5q160 0 293 78q27 16 48.5 32.5t41 37t40 48t44.5 64.5q-176 98 -275.5 187.5 t-160.5 191.5q-45 74 -56 136q-4 23 -4 44q0 35 12 63q19 44 73 67q49 22 124 22h13q70 -4 156.5 -31.5t164.5 -60.5q90 -37 183 -86q18 39 32.5 75.5t29.5 75.5t35.5 82t51.5 99q61 111 107 168q29 37 69.5 65.5t71.5 28.5q70 0 110 -66q10 -16 13.5 -35.5t-0.5 -58.5 l-15 -109l-16 -161q-4 -45 -6 -94.5t-8 -102.5q-4 -41 -4 -72v-77q-1 -40 -2 -82q0 -21 1 -43q1 -66 7 -166l12 -105q8 -47 8 -77.5t4 -30.5q51 0 100.5 23.5t86.5 51t59.5 50t24.5 20.5l26 -33q-41 -51 -91 -83.5t-93 -51t-72.5 -25t-29.5 -3.5q-14 -55 -29.5 -80 t-48.5 -25q-23 0 -40.5 11.5t-27.5 27.5q-8 12 -13 30l-16 52q-82 8 -159.5 25.5t-139.5 39.5q-47 16 -104 40t-104 49q-94 -141 -218 -208t-284 -67q-72 0 -140.5 16.5t-128 46t-108.5 72.5t-82 97q-29 50 -29 89q-1 16 4 30zM358 894q-11 -27 -10 -58q0 -70 53 -160 q53 -88 155.5 -173t242.5 -163l18 33q18 31 37.5 75t40 90t37 90t29.5 74q16 43 23 62.5t13 48.5l-23 11q-24 11 -63 29.5t-88 40t-100 40t-98 32t-80 13.5h-7q-146 0 -180 -85zM852 313q41 -18 75 -33.5t66 -27.5q55 -23 153.5 -47.5t203.5 -40.5q-2 16 -3 27.5t-2.5 23.5 t-1.5 29v41v38q0 22 -1 44t-2 43.5t-1 35.5l-2 37q0 14 -14 35t-34.5 41.5t-43 42t-41.5 39.5q-25 23 -50.5 46.5t-47 42t-35.5 28.5l-14 10q-10 -14 -17.5 -36.5t-17.5 -45.5q-14 -33 -31.5 -88t-38.5 -94l-51 -94q-14 -29 -22.5 -43.5t-13.5 -23.5t-7 -15.5t-6 -14.5z M1065 807q16 -12 32.5 -23.5t41.5 -31.5q59 -49 106 -98.5t88 -98.5q2 12 3 19.5t3 15.5q0 12 -1 38v18q0 20 1 46q0 23 1 53.5t2 62.5t2.5 60.5t5.5 49.5q0 6 2 30.5t4 55t5 61.5t7 49q10 49 20 101q14 80 14 101q0 5 -2 11q-3 10 -7 19q-4 8 -9.5 9t-9.5 1 q-8 0 -26.5 -10.5t-49.5 -51.5q-29 -39 -45 -75.5t-45 -90.5q-8 -16 -26.5 -57t-38 -84t-34.5 -79t-15 -38q-10 -16 -17.5 -34.5t-11.5 -28.5z" />
<glyph unicode="B" horiz-adv-x="1697" d="M-3 324q13 47 75 47q49 0 101 -36t81 -85q19 -32 19 -57q0 -7 -2 -15q-7 -31 -42 -35h-16q-27 0 -10 -26q8 -14 29.5 -27.5t50 -25t61.5 -17.5t64 -6q53 0 88.5 14.5t62.5 50.5q18 25 32.5 54.5t27 70.5t22.5 99.5t21 138.5l30 242q6 47 16.5 90t16.5 80q6 16 9 32.5 t6 37t8.5 47t15.5 61.5q4 12 8 23.5t8 19.5q2 0 -16.5 4t-47 10t-62 10t-64.5 4q-53 0 -108.5 -11t-107.5 -29.5t-97.5 -44t-75.5 -58.5q-86 -96 -101 -221q-2 -21 -2 -42q0 -102 58 -200q76 -127 192 -127q72 0 125 59.5t57 155.5q0 53 -16 114.5t-49 115.5l-8 14h32 l15 -25q37 -61 56 -124q16 -52 16 -103q0 -10 -1 -20q-6 -106 -65 -171t-156 -65q-74 0 -147.5 47t-122.5 129q-60 100 -60 209q0 67 23 137q51 135 185.5 220.5t326.5 95.5h92q41 -4 70 -8t47 -9q23 -4 37 -8q-2 0 11 21.5t38 54.5t61.5 71t85 69.5t107.5 50.5 q49 16 105 17q12 0 24 -1q104 -6 195.5 -56.5t144.5 -136.5q36 -61 36 -112q0 -48 -32 -86l-27 16q11 29 12 57q0 43 -26 84q-25 39 -60.5 73t-77.5 56.5t-89 36t-92 13.5q-125 0 -211 -66t-125 -182q102 -39 179 -95.5t122 -130.5q43 -74 43 -135q0 -97 -107 -162 q195 -45 299 -215q33 -53 44 -102q8 -36 9 -68q0 -12 -1 -22q31 -4 46 -5t27 -1q57 0 91 9t55 26q12 8 21 23.5t15.5 30.5t8.5 27l2 11l53 -33q-16 -43 -33.5 -69.5t-43 -42t-62.5 -20.5t-92 -5q-23 0 -46.5 1t-66.5 5q-29 -63 -78 -100t-129 -54q-45 -14 -84 -16t-80 -2 q-78 0 -121 17.5t-65 54.5q-9 16 -9 30q0 30 41 53q60 34 189 54q39 4 82 8t92 4h33q1 8 1 17q0 40 -16 84q-19 54 -55 114q-43 72 -86 107.5t-98 44.5h-21q-35 -10 -54 -15.5t-44 -5.5q-20 0 -33.5 6t-17.5 15q-16 27 12.5 36t81.5 9h43q52 46 52 125q0 82 -50 168 q-29 49 -68.5 83.5t-103.5 63.5l-2 -16l-10 -45q0 -29 -3 -73t-7 -104l-6 -163q-6 -170 -21.5 -295t-52.5 -195q-51 -96 -130 -139t-192 -43q-63 0 -124.5 15.5t-117 44t-99.5 68.5t-72 87q-31 49 -31 88q0 13 3 25zM997 84q27 -43 136 -43q20 0 31.5 3t39.5 7 q53 16 73.5 44t41.5 77h-23q-47 0 -84.5 -3t-74.5 -7q-27 -2 -54.5 -10.5t-49 -18.5t-33.5 -23q-7 -8 -6 -16q0 -5 3 -10z" />
<glyph unicode="C" horiz-adv-x="1101" d="M-39 389q-61 129 -61 267q0 163 86 339q49 104 122.5 188.5t162.5 143.5t189.5 91t203.5 32q74 0 146.5 -20.5t135 -56.5t110.5 -85t74 -106q31 -65 31 -130q0 -13 -1 -25q-7 -77 -52 -138q-47 -57 -126 -92t-163 -35q-104 0 -186 47t-121 129q-22 50 -22 93q0 36 16 68 q35 69 145 120l21 -33q-78 -35 -99 -102q-7 -24 -7 -49q0 -46 24 -97q29 -59 89 -95t132 -36q33 0 67.5 8t63.5 29q39 31 65.5 71.5t38.5 88.5q8 32 7 66q0 15 -1 31q-5 50 -28 97q-47 98 -140 155.5t-212 57.5q-121 0 -223.5 -59.5t-186.5 -169.5q-63 -90 -103 -195.5 t-56 -214.5q-9 -63 -8 -124q0 -45 4 -90q11 -105 53 -191q66 -141 196.5 -222.5t296.5 -81.5q123 0 220.5 38t165 82t104 81t39.5 37q12 -8 23 -15t24 -16q-31 -47 -92.5 -95t-141.5 -88t-174 -64.5t-192 -24.5q-231 0 -401.5 99t-258.5 292z" />
<glyph unicode="D" horiz-adv-x="1941" d="M16 811q55 106 125 196.5t160 160t201.5 116.5t251.5 68q27 4 57 4h59q129 0 250 -37t227.5 -105.5t193.5 -168t151 -222.5q86 -172 90 -327v-17q0 -144 -68 -237q37 -4 54.5 -5t33.5 -1q66 0 106 10t62 30q10 8 25.5 33t48.5 72l49 -37q-25 -49 -47.5 -80t-53 -48 t-73.5 -23.5t-107 -6.5h-31q-19 0 -40 2q-23 0 -49 2q-29 -53 -85.5 -96t-124 -64.5t-137.5 -24.5q-42 -2 -71 -2q-19 0 -31 1q-86 6 -136 18.5t-73 55.5q-8 16 -7 31q0 40 56 72q78 44 236 61q23 4 73 6t97 2h96q31 39 42 97q7 38 7 80q0 23 -2 47q-6 69 -29.5 145.5 t-62.5 154.5q-59 117 -139 209t-175.5 156.5t-200.5 99.5t-214 35h-10q-83 0 -174 -32q-96 -34 -185.5 -93t-164 -142t-119.5 -178q-68 -156 -73 -310v-25q0 -139 52 -244q49 -96 130 -148.5t175 -52.5q63 0 112.5 22.5t87.5 75t70.5 140.5t63.5 221q14 86 26.5 134t16.5 58 q20 80 53 161t62 134q14 27 29.5 46.5t33 35t40 28.5t53.5 32l32 -27q-23 -18 -35 -38.5t-21 -44t-16.5 -54.5t-15.5 -72l-30 -151q-33 -160 -49.5 -283t-53.5 -203q-53 -129 -164.5 -197.5t-273.5 -68.5q-158 0 -276.5 71.5t-184.5 200.5q-58 117 -58 255q-1 143 72 286z M1159 98q10 -25 60.5 -36t111.5 -11l47 6q57 8 102.5 44t92.5 98q2 0 -29 -1t-70.5 -3t-77.5 -4.5t-50 -4.5q-106 -12 -155 -35q-36 -18 -36 -38q0 -8 4 -15z" />
<glyph unicode="E" horiz-adv-x="1099" d="M-27 474q-1 18 -1 36q0 80 30 152q37 88 118 156.5t199 103.5q-47 29 -71.5 52t-52.5 58l-17 21q-46 75 -46 146q0 11 1 23q8 83 64.5 147.5t159 104t239.5 39.5q147 0 268 -52t183 -144q18 -29 26 -90q2 -12 2 -25q0 -55 -28 -135l-5 -14l-55 26l4 11q14 33 14 65 q0 21 -6 41q-14 53 -47 100q-53 78 -133 119t-166 41q-92 0 -169.5 -43t-110.5 -119q-18 -31 -25 -70q-4 -24 -4 -49q0 -16 2 -33q4 -42 16.5 -84t34.5 -75l21 -31q41 4 56 8.5t30 4.5q57 0 100 -17.5t62 -46.5q18 -29 -7.5 -50.5t-87.5 -21.5q-39 0 -77.5 11.5t-102.5 33.5 q-88 -23 -146.5 -84t-81.5 -144q-15 -52 -15 -108q0 -35 6 -71q14 -96 73 -186q141 -219 428 -220q190 0 325.5 78t182.5 217l70 -43l-8 -14q-152 -301 -611 -301q-195 0 -337 72.5t-234 210.5q-62 94 -70 193z" />
<glyph unicode="F" horiz-adv-x="1396" d="M-343 1169q-2 18 -3 35q0 59 32 105q40 59 128 93t217 34q70 0 169 -12.5t263 -51.5q217 -41 369.5 -66.5t218.5 -25.5q16 0 25 -2t20 8l39 27q20 12 33.5 19t24.5 11.5t23.5 5.5t28.5 1q23 0 49.5 -13.5t40.5 -31.5q18 -29 -18.5 -44.5t-138.5 -25.5l-29 -6 q-10 -18 -12 -31.5t-7 -38.5q-8 -27 -16 -51.5t-12 -52.5q-4 -31 -6 -56.5t-4 -53t-1 -61.5t5 -81l14 -131l2 -82l8 -35q31 23 57.5 29t61.5 6q55 0 106.5 -25.5t90.5 -79.5q18 -28 18 -52q0 -5 -1 -10q-5 -28 -40 -28q-29 0 -61.5 17.5t-53.5 46.5q-2 2 -3 5t-3 7l-4 8 q-6 10 -7 12.5t1 6.5l-4 6q-6 10 -21.5 17t-35.5 7q-14 0 -28.5 -4t-31.5 -8q-23 -18 -31 -38.5t-10 -88.5q-12 -387 -368 -387q-70 0 -140.5 17.5t-135 50t-120 78t-94.5 98.5q-46 62 -46 109q0 7 1 15q8 52 74 52q55 0 117.5 -37t103.5 -94q31 -43 31 -79t-41 -36l-17 -6 q-18 0 -19 -9t5 -20q10 -14 30.5 -27.5t43.5 -23.5q41 -18 90 -30.5t90 -12.5q94 0 146.5 74t58.5 215v213q0 82 7 168t19.5 166t28.5 147.5t35 112.5q10 16 22.5 42.5t22.5 49.5q-49 0 -97 4t-111.5 13.5t-151 24.5t-213.5 40q-137 29 -239.5 42t-164.5 13 q-227 0 -283 -103q-17 -31 -16 -70q0 -87 88 -208q45 -63 105.5 -115.5t127 -89t136 -56t135.5 -19.5q78 0 134 20.5t99 71.5l41 -31q-41 -66 -103.5 -92.5t-148.5 -26.5t-181 27t-186 73t-170 108.5t-132 135.5q-66 92 -77 172z" />
<glyph unicode="G" horiz-adv-x="1204" d="M-791 1167v16q0 92 46 158q49 72 176 113l28 -33q-59 -37 -91 -59.5t-54 -56.5q-24 -36 -24 -84q0 -22 5 -47q16 -78 76 -164q53 -78 126 -140.5t159 -109.5t180 -78t191 -41q29 -4 42 -5t23 -1q8 96 45 199.5t96 201.5q35 57 66 103.5t68 79.5l55 49q90 78 187.5 124 t193.5 46q86 0 161.5 -38t122.5 -106q36 -53 36 -112q0 -70 -50 -149q-92 -144 -321 -292q-33 -23 -71 -42t-78 -36.5t-77 -31t-67 -23.5q-23 -4 -41.5 -7t-40 -7t-48 -7t-63.5 -7q-3 -31 -2 -67v-36q2 -55 9.5 -106.5t19.5 -94.5t29 -65q59 -86 157 -86q43 0 90 15.5t89 41 t75 60t49 73.5l-2 29l-6 49q-1 14 -1 28q0 52 19 92q24 50 64 50q16 0 26.5 -8t20.5 -20q14 -20 16.5 -42t-6.5 -63v-11q0 -7 -4 -16q-2 -41 -3 -72.5t-1 -65.5t3 -74.5t7 -100.5l7 -225q33 35 54 57.5t35.5 36.5t22.5 23.5t17 19.5q43 53 74.5 101.5t53 85t33 57t13.5 20.5 l43 -26l-19 -39q-12 -27 -31.5 -59.5t-40 -66.5t-42 -63.5t-35.5 -48.5q-39 -49 -81 -93t-79 -89q-4 -2 -5 -6t-5 -8v-66q0 -27 -4 -61q-2 -92 -5 -169t-7.5 -144.5t-10.5 -128t-14 -120.5q-4 -37 -11.5 -71.5t-14.5 -62t-12 -46t-5 -20.5l-17 -64q-16 -84 -47.5 -142 t-72.5 -95t-87.5 -53.5t-91.5 -16.5q-49 0 -99 28.5t-85 82.5q-60 86 -60 208q0 11 1 23q6 137 92 295q20 37 37.5 67.5t50.5 77.5q25 41 60.5 90.5t66.5 90.5q23 29 51.5 65.5t63.5 77.5q29 35 47 56.5t41 56.5l-2 188l-15 268l4 35q-135 -150 -288 -149q-96 0 -184.5 45 t-139.5 131q-31 51 -47 108.5t-24.5 103.5t-10.5 76.5t-4 30.5q-45 0 -98.5 7.5t-106.5 25.5q-121 35 -224 91t-202 124q-49 35 -90 79t-72 91q-35 49 -57.5 97t-26.5 89zM285 641q174 33 280 82q150 70 232 139q147 113 191 232q19 51 19 95q0 61 -34 111q-55 84 -185 84 q-78 0 -159.5 -51t-151.5 -143q-29 -41 -50 -77t-41.5 -81t-40 -103.5t-40.5 -140.5q-16 -61 -19 -104t-1 -43zM392 -1185v-11q0 -50 8 -91q9 -46 28 -75q23 -35 53.5 -50t59.5 -15q49 0 83.5 40.5t67.5 141.5q8 20 15.5 47t13.5 53.5t11 49t7 36.5l9 49q12 78 21 177.5 t9 189.5l6 145l7 72l6 31q-74 -74 -145.5 -169t-125.5 -192q-29 -43 -52 -95t-34 -93q-23 -59 -35 -122t-13 -119z" />
<glyph unicode="H" horiz-adv-x="1435" d="M-191 324q15 43 68 43q49 0 103.5 -33t85.5 -84q23 -36 22 -62q0 -7 -1 -13q-7 -30 -44 -30h-16q-23 0 -7 -26q8 -14 31 -28.5t52.5 -25t63.5 -17.5t69 -7q82 0 127 52t73 179q-31 14 -50 23.5t-33.5 16.5t-26 12.5t-23.5 13.5q-59 35 -104 75t-72 81q-32 52 -32 95 q0 33 19 61q44 65 179 67q27 0 60.5 -3t62 -7.5t49.5 -7.5l20 -3q4 27 9.5 56.5t7.5 48.5q10 41 16 67.5t12.5 48t12.5 40t16 42.5q-51 -18 -91 -27t-73 -18q-23 -4 -43 -5t-41 -1q-29 0 -47 1t-49 9l-16 35q25 -4 39 -5t26 -1q25 0 52.5 3t50.5 9q16 4 43.5 11.5t59.5 16.5 t63.5 21.5t54.5 26.5q20 8 26 29q2 4 13.5 19.5t27.5 39.5q35 59 81 96t83 37q47 0 66 -34q6 -9 6 -20q0 -44 -103 -118l-112 -69q-12 -31 -19.5 -45.5t-13.5 -38.5q-6 -41 -15 -109q-8 -55 -8 -146q0 -20 1 -42l6 -17q61 -23 109 -44t91 -47.5t86 -60.5t93 -79 q-8 107 -8 206q0 132 14 250q25 206 84 352t154.5 227t217.5 81q80 0 152 -41t117 -112q40 -66 40 -127q0 -17 -3 -33q-14 -76 -101 -119l-33 27q57 41 64 105q1 8 1 16q0 57 -38 114q-35 59 -86 87t-111 28q-59 0 -113 -30t-97 -83t-75 -130t-46 -169q-4 -55 -7.5 -138 t-3.5 -181.5t4.5 -206t16.5 -211.5l22 -203q68 2 118 11.5t87 31t61.5 56t43.5 83.5l49 -34q-20 -53 -38.5 -80t-49.5 -53q-43 -29 -103.5 -44.5t-154.5 -15.5q0 -53 -13.5 -72.5t-50.5 -19.5q-51 0 -76 39q-10 16 -13 29.5t1 35.5l-147 25q-41 6 -86 17.5t-88 23.5 t-80 23.5t-58 19.5q-45 -111 -125.5 -162t-197.5 -51q-61 0 -122.5 15.5t-117 44t-101.5 69.5t-77 92q-28 44 -28 79q1 14 5 26zM166 556q8 -34 31 -69q16 -27 57 -58.5t84 -58t75.5 -44t32.5 -15.5l15 115l8 152q0 16 2 24t3 16l2 17q1 8 1 24q-37 4 -74.5 11.5t-78.5 7.5 q-68 0 -105 -16.5t-49 -44.5q-7 -17 -7 -35q0 -12 3 -26zM588 250q86 -29 178 -55.5t170 -38.5q67 -11 82 -12q4 0 4 1l-14 226q-33 41 -91.5 85t-120 79.5t-111.5 59t-64 23.5q-2 -27 -3.5 -64.5t-3.5 -78.5t-5 -80t-7 -63q-2 -10 -4 -24.5t-4 -28t-4 -21.5z" />
<glyph unicode="I" horiz-adv-x="1134" d="M69 159q19 32 61 57.5t96.5 40.5t101.5 17q35 4 126 8q21 1 43 0q74 0 162 -8l9 41q10 43 12 86q1 14 1 29q0 28 -3 55q-2 47 -8 100.5t-8 98.5q-2 30 -3 61q0 23 1 46q3 53 12 106q4 47 17 96t24 78q18 47 41.5 92t68.5 105l13 22q-344 -55 -464 -165q-62 -57 -63 -125 q0 -64 53 -138q37 -51 85.5 -81.5t134.5 -59.5l8 -31q-213 18 -344 197q-55 77 -56 143q0 235 711 322q41 39 75 56t81 17q23 0 36 -5t23 -17q7 -9 7 -19q0 -19 -28 -35q-42 -26 -139 -46l-34 -7q-12 -14 -14.5 -24t-12.5 -29q-16 -55 -24.5 -101t-12.5 -101q-3 -43 -3 -98 v-28q1 -72 7 -178q2 -53 3 -96q0 -33 -2 -61q-3 -66 -5 -121q-4 -31 -6 -54.5t-6 -47t-9.5 -50t-13.5 -63.5q68 -6 111 -10.5t90 -4.5q66 0 122 33t93 100l47 -26q-35 -51 -91 -98.5t-148 -55.5q-23 -2 -47 -1q-35 0 -69 3q-58 6 -136 23q-27 -39 -62 -76t-82 -65.5 t-108.5 -47t-141.5 -20.5q-135 0 -212.5 22.5t-114.5 73.5q-14 18 -14 36q0 15 9 29zM186 100q16 -23 63.5 -36t104.5 -17q11 -1 23 0l141 22q82 26 123 154l-121 6q-41 0 -79 -4t-72 -8q-109 -12 -160 -46q-33 -22 -33 -45q0 -13 10 -26z" />
<glyph unicode="J" horiz-adv-x="1024" d="M-98 -1536q-1 24 -2 49q0 162 59 340q25 96 87.5 209t137.5 211q68 86 145 160.5t132 134.5q53 59 90 98t37 41q0 39 -2 66.5t-4 63.5t-5.5 90.5t-7.5 144.5q-4 135 -7 223t-3 129v32q0 135 15 268q17 148 47 290q2 33 6 52t8 37l8 35q4 17 6 46q0 2 -16.5 -3t-39 -11.5 t-46 -11.5t-37.5 -5q-35 0 -80 8t-96 23q-86 29 -127 36t-57 7q-72 0 -87 -51q-3 -12 -3 -26q0 -42 34 -95q14 -23 29.5 -39.5t35 -29.5t45 -25.5t60.5 -24.5l17 -6l14 -33q-86 10 -150.5 49t-105.5 103q-33 51 -38 97q-1 11 -1 21q0 33 12 60q16 35 55 56.5t97 21.5 q35 0 81 -7.5t97 -15.5q68 -16 110 -27.5t68.5 -17.5t39.5 -8t26 -2q27 0 50 -2t32 22l10 35l16 41q39 115 86 115q10 0 22.5 -7.5t22.5 -23.5q10 -15 10 -33q0 -19 -11 -41q-22 -43 -87 -90q-2 -59 -5 -102t-5 -85t-3 -87v-32q0 -34 1 -75q-2 -59 -2 -141t2 -198.5 t7 -275.5t11 -376q143 152 233.5 280t121.5 220l65 -43l-4 -13q-86 -141 -184 -272t-225 -274q-2 -12 -2 -15.5t2 -13.5q-2 -14 -3 -41q0 -20 2 -47q3 -63 5 -174q2 -63 2 -140q0 -57 -1 -122q-3 -152 -18 -308q-10 -145 -35.5 -264t-62.5 -237l-37 -131 q-66 -154 -146.5 -235t-176.5 -81q-74 0 -146 45t-131 137q-90 138 -100 322zM13 -1492q0 -103 25 -196q26 -96 77 -176q41 -59 79.5 -83.5t88.5 -24.5q37 0 72.5 18.5t68.5 52t57.5 81.5t38.5 108l45 194l17 119q8 94 12 183.5t6 191.5q1 68 1 146v80q-1 124 -5 288v38 q0 15 1 26.5t2 23.5t1 29q-43 -43 -77 -76t-63.5 -65.5t-61 -69.5t-72.5 -88q-72 -88 -118 -166t-91 -168q-51 -119 -77 -235q-27 -120 -27 -231z" />
<glyph unicode="K" horiz-adv-x="1669" d="M-59 1208q57 -12 102 -19t83 -11t72.5 -5.5t75.5 -1.5q74 0 129.5 4.5t98.5 11.5t76.5 20.5t64.5 31.5q41 86 90 137t90 51q14 0 27.5 -7t19.5 -15q14 -20 14 -43q0 -30 -25 -65q-44 -60 -148 -101q-4 0 -8.5 -4t-14.5 -8q-10 -37 -16 -60.5t-10 -68.5v-48q0 -24 1 -49.5 t3 -57.5t2 -73l411 129l2 31q6 96 10.5 152.5t24.5 105.5q25 59 74 96q39 29 81 50q38 19 94 18h11q41 0 78 -20.5t64 -57.5q25 -36 25 -82q0 -7 -1 -13q-4 -54 -41 -101q-10 -18 -31.5 -38t-44.5 -36q-23 -10 -42 -28.5t-42 -22.5q-4 -4 -30.5 -18.5t-83.5 -43.5 q-2 -43 -5 -72.5t-8.5 -51t-12.5 -38t-17 -32.5q-6 -20 -21.5 -40t-38 -36t-48 -28.5t-50.5 -18.5q78 -37 117 -69t67 -73q27 -37 43.5 -82t32.5 -114q12 -55 22.5 -95t26.5 -63q20 -29 51 -42t62 -13q41 0 82 19.5t78 55t65.5 86t46.5 109.5l66 -45l-2 -12 q-70 -154 -158 -223.5t-213 -69.5q-78 0 -140.5 35t-103.5 94q-27 37 -48 106.5t-31 157.5l-15 115q-6 14 -11 27.5t-15 27.5q-31 45 -93 45h-6q-29 -8 -46 -13t-30.5 -8t-25.5 -4t-29 -1q-23 0 -43 8t-28 18q-12 16 21.5 28.5t102.5 12.5h68q25 10 48.5 25.5t45.5 48.5 q16 16 24.5 32.5t13.5 36t6 46t3 63.5l-403 -141v-25l4 -86q2 -45 2 -89q0 -73 -6 -142q-10 -111 -41 -187q-12 -41 -32.5 -76.5t-53.5 -64.5q-45 -47 -109.5 -68.5t-140.5 -21.5q-170 0 -268 141q-35 50 -35 111v13q4 69 31.5 136.5t71.5 125t85 87.5q33 29 81 52.5 t95 44.5l142 61q4 14 4 24v13l3 71q1 24 5 33q4 27 12.5 60t18.5 69q12 41 22.5 62.5t26.5 52.5q-164 -35 -301 -35q-35 0 -66.5 2t-68.5 7.5t-83 11.5l-108 14zM99 248q7 -55 42 -107q29 -43 70 -67.5t88 -24.5q35 0 66.5 24.5t55 54.5t37 54.5t11.5 26.5q14 49 15 121.5 t5 165.5q0 45 1.5 72.5t1.5 49t1 40t3 47.5l-43 -19q-74 -29 -127.5 -63.5t-112.5 -90.5q-35 -31 -63.5 -76.5t-43.5 -99.5q-10 -35 -9 -72q0 -18 2 -36zM1208 1170v-26q0 -55 6 -128l142 88q72 45 93 96q8 20 8 39q0 31 -21 61q-18 29 -42 41.5t-53 12.5 q-35 -8 -64.5 -25.5t-49.5 -60.5q-17 -36 -19 -98z" />
<glyph unicode="L" horiz-adv-x="1105" d="M-205 1074q-4 22 -4 43q0 44 19 80q27 52 90 83t157 31q29 0 53.5 -2t49 -7.5t52.5 -14.5t62 -23l2 -31q-35 12 -59 18t-43.5 9.5t-36.5 3.5h-37q-84 0 -135 -28t-69 -76q-9 -25 -10 -54q0 -28 9 -60q17 -67 70 -143q84 -119 221.5 -184.5t302.5 -65.5h46q29 0 28 4 q-4 25 -5 54.5t-3 81.5q1 35 1 62v25q-1 34 1 44q0 35 5 72.5t12.5 74.5t15.5 72t16 61q8 23 15.5 43.5t23.5 38.5q47 70 109.5 111t124.5 41q59 0 114.5 -32t91.5 -85q41 -59 53 -142q4 -28 3 -57q0 -58 -15 -121q-16 -61 -49 -120.5t-80 -98.5q-59 -49 -135 -91t-162 -64 v-13l-6 -76q-2 -26 -5 -45.5t-8 -44t-17 -71.5l-10.5 -31.5t-13.5 -39t-14.5 -36t-13.5 -24.5q-29 -41 -55.5 -73t-64.5 -58l28 -4q55 -8 110.5 -17.5t103.5 -17.5t87 -13.5t60 -5.5q66 0 110.5 29t79.5 78l55 90l39 -21l-8 -16q-31 -61 -61.5 -105t-65.5 -71t-77 -39 t-97 -12q-47 0 -109.5 8t-166.5 35q-47 10 -79 17t-48 11h-7q-4 0 -16 5q-47 -27 -110.5 -48.5t-141.5 -27.5q-117 0 -162 67q-13 19 -13 34q0 20 23 34q40 25 142 25q27 0 70 -4.5t82.5 -9.5t68.5 -9t29 -2q39 20 67.5 61t40.5 70q12 31 26 84q12 46 11 131v27q0 27 1 44 t1 29v23q0 10 2 24q-20 -4 -30 -4h-25q-98 0 -193.5 21.5t-179.5 62.5t-155.5 97.5t-120.5 128.5q-56 79 -68 150zM78 72q10 -14 41 -26.5t63 -12.5q57 2 98.5 14t81.5 39q-45 8 -88 14t-77 11h-45q-47 0 -68 -11q-12 -6 -12 -15q0 -5 6 -13zM692 889.5q0 -58.5 1 -116.5 t1 -97q182 59 281 215q31 51 49 109.5t23 117.5q1 15 1 30q0 44 -10 86q-12 56 -43 101q-43 57 -114 58q-86 0 -138 -107q-6 -10 -13 -33.5t-15 -55.5t-13.5 -67.5t-7.5 -70.5q0 -16 -1 -63.5t-1 -106z" />
<glyph unicode="M" horiz-adv-x="2449" d="M-262 1030q-1 14 -1 29q0 99 50 184q51 92 155.5 142.5t227.5 50.5q238 0 391 -217q39 -53 65.5 -114t37.5 -110q162 315 372 316q78 0 149.5 -42t129.5 -122q23 -35 36 -64.5t19 -74.5q176 295 385 295q76 0 146.5 -42t121.5 -114q29 -43 45.5 -88t22.5 -110 q4 -39 4 -86q0 -32 -2 -68q-4 -90 -16 -220q-7 -87 -7 -153q0 -55 5 -96q10 -90 45 -142q61 -90 149 -90q29 0 72 42t83 92.5t67 93.5l28 43l55 -41l-13 -24q-13 -24 -36.5 -58.5t-57.5 -74.5t-72 -75t-80 -59.5t-85 -24.5h-6q-73 0 -147 49q-78 51 -142 144q-47 70 -60 150 q-8 46 -8 102q0 43 5 94l16 164q10 117 13 193q1 26 0 49q0 46 -3 79q-4 51 -14 81t-24 52q-49 72 -125 72q-49 0 -99.5 -34t-97.5 -93t-87 -139t-65 -172l-10 -410q-1 -29 -1 -54v-26q1 -37 -1 -57q0 -70 -6 -116t-16.5 -74.5t-27.5 -41t-42 -12.5q-31 0 -49.5 10.5 t-36.5 36.5q-18 25 -27.5 70t-10.5 106v16q0 55 6 120q7 74 22 155q6 31 8 59.5t2 65.5t-1 86t-3 117q-2 59 -2 104t-4 74q-4 39 -10.5 78t-24.5 65q-49 72 -129 72q-86 0 -186 -129q-35 -47 -61.5 -91t-45 -93t-30 -105.5t-13.5 -126.5l-12 -321q-4 -203 -32 -289t-73 -86 q-25 0 -52.5 16.5t-43.5 36.5q-12 18 -20.5 57.5t-9.5 86.5v15q0 40 4 83q5 51 18 98l22 101q12 51 14.5 114.5t4.5 100.5q2 66 3 111v23q0 33 -2 59q-3 36 -7 64.5t-11 59.5q-29 125 -98 225q-45 63 -100 96t-115 33q-123 0 -207 -63.5t-100 -171.5q-4 -33 -4 -67 q0 -53 10 -107q16 -88 70 -162q35 -49 78 -77.5t88 -28.5q49 0 80.5 55t44.5 149l47 -24v-20q0 -106 -40 -164q-44 -62 -139 -62q-74 0 -152.5 46t-137.5 132q-68 98 -76 213z" />
<glyph unicode="N" horiz-adv-x="1628" d="M-219 981q14 63 51 115.5t92.5 87.5t125 54t149.5 19q96 0 187 -48t153 -140q25 -33 35 -57.5t20 -63.5l14 33q74 133 162 202.5t180 69.5q72 0 149 -43t126 -114q16 -25 31.5 -56.5t21.5 -64.5q6 -27 9 -52.5t3 -68.5t-4 -115.5t-12 -193.5q-8 -86 -10 -147 q-1 -17 -1 -33q0 -40 4 -70q5 -43 16 -74t30 -57q29 -43 66.5 -64.5t70.5 -21.5q68 14 129 87t115 195l57 -45q-25 -47 -53.5 -100t-67.5 -98t-86 -77t-108 -34q-76 0 -155 46t-134 126q-57 82 -70 178q-7 53 -6 119q0 55 4 119q6 86 11.5 155.5t7.5 141.5q1 28 0 51 q0 59 -3 94q-5 49 -28 82q-25 35 -55.5 50.5t-65.5 15.5q-57 0 -122.5 -56.5t-121.5 -146.5q-29 -47 -41 -86t-18 -111q-12 -55 -18.5 -130.5t-10.5 -151.5q-4 -66 -7 -108t-5 -72.5t-4 -53t-4 -47.5q-2 -37 -7 -76t-16.5 -70.5t-28 -53t-38.5 -21.5q-25 0 -50.5 13.5 t-39.5 31.5q-25 37 -29 124q-1 13 -1 27q0 77 19 171l19 100q14 72 20 174t6 221q-4 86 -19 145.5t-38 92.5q-37 53 -93 81.5t-122 28.5q-68 0 -116 -27.5t-89 -70.5q-39 -41 -58.5 -96t-19.5 -116.5t19.5 -124t58.5 -116.5q37 -53 76 -76.5t78 -23.5q57 0 91 51 q32 48 32 133v11l49 -27v-21q0 -218 -162 -219q-76 0 -150.5 49.5t-130.5 129.5q-49 72 -67 153q-10 43 -10 86q0 38 8 76z" />
<glyph unicode="O" horiz-adv-x="1122" d="M0 672q0 121 29.5 243.5t95.5 227.5q41 68 102.5 123t130 94t137 59.5t123.5 20.5q92 0 165 -35t118 -107q37 -56 37 -107q0 -57 -47 -93q74 -121 98 -259q11 -64 12 -136q0 -83 -16 -177q-8 -41 -14 -73.5t-14.5 -61.5t-19.5 -57.5t-28 -61.5q-80 -141 -176 -204.5 t-207 -67.5q-127 0 -233.5 64.5t-183.5 187.5q-51 78 -80 188.5t-29 231.5zM185 618q9 -135 41 -246.5t73 -174.5q84 -135 227 -136q51 0 98.5 24t85.5 58.5t66.5 75.5t42.5 76t24.5 76t14.5 75q13 71 13 154v12q-1 90 -16 177.5t-43 166t-62 134.5q-35 51 -71 75.5 t-83 24.5q-63 0 -114.5 -53.5t-90.5 -137.5q-14 -41 -22.5 -87t-16.5 -91l-53 25v17q0 51 10 100q12 57 37 104q47 86 111.5 141.5t146.5 55.5q80 0 139.5 -31t118.5 -98q15 13 15 36v11q-4 31 -27 63q-41 66 -112.5 103.5t-151.5 37.5q-92 0 -172 -56t-140 -152 q-59 -131 -78 -278q-13 -99 -14 -193q0 -46 3 -89z" />
<glyph unicode="P" horiz-adv-x="1267" d="M-451 1104q-3 23 -2 45q0 87 45 154q57 84 180.5 132t305.5 48q109 0 212 -12.5t202 -40.5q70 -20 155.5 -65.5t161.5 -90.5t128 -79t54 -34q49 16 86 24q29 6 64 5h20q35 -2 62.5 -7t55.5 -17.5t58.5 -33t71.5 -51.5l-8 -10q-39 20 -66.5 33.5t-50 23t-47.5 14.5t-57 9 q-10 1 -21 1l-45 -6q-33 -9 -72 -26q29 -27 51.5 -47t40 -39.5t34 -39t32.5 -44.5q98 -140 98 -240q0 -13 -2 -25q-14 -108 -141 -148q-62 -24 -125 -24l-26 1q-76 6 -132 23l-6 -40q-6 -40 -23.5 -100.5t-46 -130t-72.5 -129t-102.5 -99.5t-136.5 -40q-68 0 -134 14.5 t-125.5 42t-108.5 67.5t-84 89q-35 52 -36 91q0 8 2 15q9 43 67 43q53 0 109 -30.5t93 -83.5q24 -35 25 -64q0 -42 -35 -47q-16 0 -17 -6t3 -16q23 -29 87 -49.5t134 -20.5q115 0 174 66q18 23 31.5 52t22.5 76.5t13.5 116t8.5 166.5l2 66q-111 49 -192 108.5t-132 132.5 q-29 41 -39 78t-14 78l45 -18q6 -35 19.5 -69t39.5 -62q18 -31 64.5 -67t93.5 -66.5t82 -51t35 -18.5v55v27v27q0 17 2 61q4 76 28.5 124t43.5 74q25 35 52 60.5t62 54.5q-74 74 -172 133.5t-188 102.5q-25 12 -71 28.5t-105.5 31.5t-130.5 26q-60 9 -124 8h-26 q-154 -4 -255 -53.5t-143 -133.5q-28 -56 -28 -123q0 -35 7 -73q22 -113 114 -244q45 -63 101.5 -117.5t119 -94.5t129 -66.5t133.5 -34.5l15 -33q-182 20 -346 121.5t-279 263.5q-95 133 -109 248zM844 729q6 -37 10 -75t14 -74q45 -13 86 -13q18 0 35 2q55 8 94 19 q43 18 57 58q8 23 7 49q0 20 -4 43q-10 52 -39 110.5t-70 116.5q-12 16 -26.5 35.5t-28.5 35t-23.5 25.5t-11.5 10q-57 -41 -84 -94q-30 -60 -30 -115q0 -49 14 -133z" />
<glyph unicode="Q" horiz-adv-x="1337" d="M-100 80q-7 15 -8 30q0 49 77 97q47 29 101.5 44t97.5 19q31 4 59.5 5t67.5 1q78 0 147.5 -13t151.5 -38q82 76 134 183.5t71 227.5q10 67 10 135q0 53 -6 107q-14 122 -66 226q-53 106 -137 172.5t-176 66.5q-78 0 -136.5 -39.5t-92.5 -107.5q-37 -84 -37 -185.5 t41 -189.5q29 -59 81 -94t111 -35q78 0 122 72t46 211l53 -19q1 -21 2 -40q0 -123 -55 -201q-63 -90 -184 -90q-92 0 -164 47t-113 131q-38 82 -38 182v15q3 110 51 208q57 102 157.5 157.5t220.5 55.5q125 0 235 -77.5t181 -221.5q51 -109 63 -229q3 -33 3 -67 q0 -88 -22 -175q-30 -121 -96.5 -234.5t-170.5 -207.5q152 -55 256 -77.5t172 -22.5q55 0 98 21.5t97 78.5q35 39 53 72.5t41 68.5l53 -45l-8 -12q-102 -156 -201.5 -224.5t-218.5 -68.5q-66 0 -188.5 29.5t-276.5 79.5q-96 -53 -196.5 -80t-233.5 -29q-98 0 -152 16.5 t-77 63.5zM-2 102q14 -20 39.5 -30.5t53.5 -14.5q22 -3 45 -3h11q29 1 52 3q74 4 146.5 26.5t129.5 51.5q-72 23 -148 44q-70 20 -140 20h-13q-86 0 -140 -29q-41 -21 -41 -49q0 -9 5 -19z" />
<glyph unicode="R" horiz-adv-x="1792" d="M-239 373q24 47 96 47q61 0 113.5 -36t80.5 -93q22 -43 22 -75q0 -10 -2 -18q-9 -36 -55 -40q-31 0 -20 -25q8 -16 31.5 -30.5t57.5 -25.5t73 -18.5t80 -7.5q139 0 221 82q18 18 32.5 39t27.5 49.5t26.5 70.5t29.5 107q6 23 21.5 72t38.5 129q27 86 45 143.5t32.5 98.5 t29 74.5t32.5 70.5q33 82 71 145.5t64 106.5q-35 16 -60.5 26.5t-52 15.5t-59 7t-80.5 2q-111 0 -218 -35.5t-177 -95.5q-106 -86 -139 -193q-13 -42 -13 -84q0 -65 31 -130q63 -123 176 -123q47 0 87 23.5t67 62.5t38 88q7 28 6 57q0 21 -3 43h31q12 -44 12 -84 q0 -20 -3 -41q-9 -59 -41 -103t-83 -70.5t-119 -26.5q-86 0 -160.5 47t-115.5 133q-36 74 -37 145q0 37 10 74q29 106 120 188t236.5 131.5t325.5 49.5q90 0 154.5 -10.5t130.5 -32.5q80 92 173 137t189 45q100 0 178 -43t142 -146l-31 -6q-51 68 -127 108t-158 40 q-90 0 -169.5 -43t-133.5 -115q92 -41 151.5 -93t96.5 -128q34 -71 34 -131q0 -34 -11 -65q-31 -83 -144 -154q143 -23 209 -158q23 -43 27 -85q2 -17 1 -39q0 -33 -3 -79q-6 -44 -7 -78q0 -21 3 -38q6 -46 22 -80q37 -76 113 -76q37 0 81 22.5t88 61.5t86 91t75 111l53 -47 l-13 -10q-102 -162 -201.5 -233.5t-223.5 -71.5q-166 0 -232 133q-16 31 -23.5 61.5t-10.5 71.5q-2 25 -2 55q0 20 1 43q2 56 6 136q10 33 4 59.5t-12 40.5q-37 72 -110 72h-39l-68 -21q-4 0 -7 -3t-7 -3q-47 0 -60 33q-3 7 -3 12q0 39 155 39h12q78 66 93 134q4 19 5 39 q0 53 -30 116q-29 59 -69 103t-97 81q-25 -47 -33 -67.5t-18 -47.5q-8 -23 -19.5 -62.5t-21.5 -89.5t-20.5 -106.5t-18.5 -107.5q-16 -96 -23.5 -150.5t-15.5 -70.5q-18 -115 -73.5 -219.5t-127.5 -174.5q-59 -49 -152.5 -77.5t-215.5 -28.5q-74 0 -145.5 18.5t-134 51 t-111 80t-76.5 106.5q-21 42 -21 75q-1 23 9 42z" />
<glyph unicode="S" horiz-adv-x="1157" d="M-242 1311q-9 32 -8 60q0 33 11 62q22 52 80.5 83.5t150.5 31.5q102 0 207.5 -32.5t203.5 -92.5l-2 -24q-109 51 -185.5 74.5t-156.5 23.5t-129 -25.5t-65 -68.5q-8 -21 -8 -45q0 -26 9 -56q17 -58 73 -124q49 -59 120.5 -107.5t158.5 -83.5t186.5 -53.5t203.5 -18.5h64 q-4 53 -6 93q-1 26 -2 47q0 11 1 21q1 30 5 56.5t10 55.5q10 43 28.5 82t34.5 61q82 98 215 99q59 0 109.5 -29t103.5 -92q39 -47 49 -96q3 -18 3 -35q0 -30 -10 -59q-15 -46 -54 -87t-94 -74q-53 -31 -116.5 -54t-137.5 -34q20 -43 28.5 -72.5t18.5 -52.5q59 -166 86 -273 t31 -177v-12q0 -133 -89 -206q-93 -77 -265 -77q-74 0 -152 20.5t-151.5 56.5t-140 86t-116.5 109q-59 71 -59 123q0 56 70 56q55 0 118.5 -36t110.5 -91q41 -47 47 -84t-22 -47h-33q-14 -4 -10 -14.5t14 -24.5q18 -23 50 -41.5t70 -31.5t80 -21.5t78 -8.5q53 0 95.5 16.5 t68.5 47.5q29 29 42.5 69.5t13.5 99t-12.5 136.5t-37.5 182q-14 53 -24 88t-17.5 61.5t-12.5 51t-11 61.5h-57q-258 0 -459 78t-324 225q-64 74 -82 144zM758 1128.5q0 -96.5 33 -206.5q59 14 121.5 41.5t111.5 68.5q89 74 89 154q0 65 -58 133q-43 53 -107 53 q-57 0 -98 -24.5t-66 -67.5q-26 -55 -26 -151.5z" />
<glyph unicode="T" horiz-adv-x="1024" d="M-338 1024q-6 34 -6 66q0 72 33 131q47 84 158.5 132t279.5 48q51 0 100 -2t105.5 -10.5t128 -21.5t168.5 -34q109 -25 185 -38q67 -12 77 -11h2q55 35 104.5 62.5t126.5 44.5q41 8 78 11q16 1 32 1q22 0 44 -2q66 -8 113 -21.5t73 -46.5q13 -17 13 -33q0 -27 -37 -51 q-59 -37 -189 -57l-24 -2q-43 -9 -83 -9h-7q-43 1 -103 1h-53q-25 0 -72 4q-16 -37 -24 -76t-9 -89q0 -8 -1 -17q0 -44 5 -98q5 -65 17 -154q12 -104 17 -182q4 -64 5 -116v-20q-1 -59 -9.5 -109.5t-22.5 -99.5q-39 -119 -118 -172t-218 -53q-147 0 -280.5 66.5 t-225.5 185.5q-45 60 -45 102q0 8 2 16q10 46 72 46q61 0 125.5 -34t107.5 -93q10 -12 16.5 -25.5t6.5 -19.5q16 -33 5 -59.5t-34 -26.5h-33q-4 0 -5 -8.5t5 -18.5q8 -8 20.5 -17.5t28.5 -19.5q49 -29 102.5 -40t104.5 -11q57 0 97.5 18.5t65 61.5t33.5 115q6 50 6 116 q0 29 -1 62l-12 178q-1 32 -1 64t1 65q2 66 6 127t11 114.5t18 90.5q10 35 24 63.5t49 73.5q-37 6 -62.5 9t-48 5t-45 5t-53.5 8l-247 43q-98 16 -171 25t-126 9q-131 0 -214 -39.5t-114 -109.5q-17 -39 -17 -87q0 -36 10 -77q24 -94 103 -201q72 -96 159 -145t177 -49 q74 0 122 27.5t68 78.5q14 35 15 80q0 20 -3 42q-9 71 -50 155l57 -4q45 -90 55 -169q3 -23 3 -45q0 -51 -17 -93q-25 -58 -80 -90.5t-137 -32.5q-111 0 -225.5 65.5t-200.5 179.5q-97 129 -117 242zM985 1270q70 -16 127 -21.5t100 -5.5q90 10 137 29q35 14 35 27q0 4 -4 8 q-14 20 -51 28t-90 8q-66 -4 -128.5 -18t-125.5 -55z" />
<glyph unicode="U" horiz-adv-x="1542" d="M-346 1369q-1 14 -1 27q0 83 34 149q39 77 120.5 123t196.5 46q135 0 256 -80t213 -237q45 -78 73.5 -157t42.5 -165q12 -75 11 -155v-25q-2 -94 -16 -203q-6 -47 -16.5 -103.5t-20.5 -113.5t-19.5 -111.5t-11.5 -95.5q0 -37 1 -75.5t15 -71.5q16 -29 40 -42t49 -13 q47 0 101 43t105.5 113.5t93.5 162.5t66 190q6 16 8 27.5t2 27.5v37v60q4 82 14.5 156.5t18.5 111.5q10 47 41 69.5t76 22.5t59 -26q16 -25 16.5 -66t-28.5 -110q-6 -16 -12 -43t-12.5 -58.5t-10.5 -62.5t-6 -53l-4 -119q-4 -74 -5 -129v-16q0 -49 5 -111q4 -53 14.5 -90 t26.5 -66q23 -39 54.5 -58.5t66.5 -19.5q80 25 150.5 90.5t119.5 157.5l51 -41q-23 -39 -54.5 -83t-72.5 -83t-93 -66.5t-116 -33.5q-84 0 -149.5 40t-108.5 114q-29 45 -40 88t-15 120q-20 -66 -54 -130t-81 -116.5t-104.5 -85t-125.5 -32.5q-70 0 -130 34t-99 99 q-18 31 -28.5 65.5t-13.5 78.5q-1 17 -1 36q0 31 3 68q5 59 20 141q45 236 61 392q15 139 15 244q0 13 -1 26q-4 61 -24.5 136t-50.5 128q-59 104 -148.5 164.5t-185.5 60.5q-74 0 -137.5 -30.5t-98.5 -84.5q-27 -41 -41 -93q-15 -56 -15 -116q0 -51 11 -102q12 -55 41 -102 q43 -74 106.5 -114t141.5 -40q45 0 67.5 13.5t43.5 41.5l36 -32q-25 -39 -54.5 -52.5t-78.5 -13.5q-104 0 -190 57.5t-146 161.5q-61 105 -67 204z" />
<glyph unicode="V" horiz-adv-x="1056" d="M-726 1007q0 55 36 93q29 12 55.5 28.5t59.5 20.5q35 8 77.5 14t71.5 8q33 4 83 5.5t124 1.5q127 0 212 4t163 14v25l26 73q2 29 35 78q23 27 39 41t37 14q16 0 33.5 -12t27.5 -24q20 -27 20 -56q0 -21 -10 -42q-26 -50 -102 -109q-1 -10 -1 -23q0 -25 5 -63 q8 -57 23.5 -129t35 -152t40.5 -149q16 -57 26 -94t17.5 -67t15.5 -59.5t18 -70.5q152 121 251.5 232.5t148.5 219t50 212.5v5q0 103 -44 209l-53 74q-59 84 -74 136q-3 12 -3 22q0 31 36 31q33 0 71.5 -31t79.5 -86q29 -39 44.5 -81t27.5 -112q66 -37 123 -51t121 -14 q23 0 34 1t35 5l33 -39q-23 -12 -44.5 -17.5t-55.5 -5.5q-47 0 -104.5 16.5t-119.5 45.5l-4 -21q2 -39 3 -68.5t-1 -56t-7 -53t-13 -57.5q-35 -129 -126 -248t-214 -221l-160 -119l-22 -14q2 -14 3 -18.5t-3 -4.5v-88v-28q0 -16 -4.5 -37t-10.5 -42.5t-14 -40t-16 -28.5 q-14 -20 -33 -21t-37 -1q-31 0 -63.5 16t-53.5 45q-29 40 -29 75q0 10 3 19q10 43 77 96l54 39q-6 23 -11.5 40.5t-13.5 39t-17.5 50t-23.5 71.5q-43 123 -67.5 215t-38.5 174q-10 78 -13 156v21q0 63 11 104q-45 -16 -79 -19.5t-85 -7.5l-244 -6q-37 0 -66.5 -1t-56.5 -3 q-174 -23 -219 -94q-16 -25 -16 -57q0 -56 53 -130q43 -59 118.5 -104t172.5 -76l2 -37q-139 41 -238.5 102.5t-169.5 157.5q-52 75 -52 139zM291 68q6 -10 19.5 -17.5t21.5 -7.5q31 0 41 31q5 13 4 29q0 12 -2 26q-6 33 -21 84q-37 -31 -57 -57q-24 -26 -24 -46 q0 -22 18 -42z" />
<glyph unicode="W" horiz-adv-x="1476" d="M-696 1096q35 25 74.5 44t96 31.5t135.5 18.5t189 8q90 2 148.5 5t98.5 7t66.5 9.5t53.5 11.5q4 12 10 21.5t8 13.5q8 14 9.5 25.5t5.5 11.5q14 55 40.5 86.5t67.5 48.5h6q20 0 29.5 -6.5t26.5 -26.5q18 -26 18 -55q0 -22 -11 -44q-26 -52 -85 -87q-2 -28 -2 -59 q0 -66 9 -145q13 -116 48 -241l55 -213l35 -102l17 -53l6 -39l12 20l47 90q20 33 44 78t46.5 94t45 100.5t40.5 96.5q12 35 19.5 50t11.5 50l-12 41l-8 55l-9 78q-4 23 -4 53.5t10 63.5q6 23 9.5 43t7.5 35q27 68 74 67q4 0 14 -5t20 -19q29 -41 36 -117q1 -13 1 -26 q0 -65 -28 -138l6 -24q0 -45 17.5 -105.5t39.5 -124.5l102 -291q14 -39 23.5 -66.5t16 -50t12.5 -46t14 -56.5l14 25l217 395l187 412q39 82 86 166t97 161.5t100.5 143t95.5 113.5q72 74 155.5 131t172.5 98t182.5 62.5t183.5 21.5q147 0 303 -44t302.5 -123t274.5 -186.5 t220 -234.5q41 -57 72.5 -117.5t50 -119t24.5 -111.5q3 -23 3 -43q0 -27 -5 -51l-51 30q1 12 1 24q0 137 -128 316q-92 127 -217 233.5t-265.5 182.5t-289 118t-289.5 42q-119 0 -231.5 -35t-212.5 -98q-90 -55 -166 -123t-143.5 -154t-128 -192.5t-119.5 -241.5 q-96 -211 -151.5 -327.5t-76.5 -145.5l-219 -393l-10 -27q4 -48 4 -86q0 -50 -7 -84q-13 -59 -54 -59q-27 0 -39 18q-20 29 -20.5 66t9.5 92q0 4 1 9t-1 16l-22 65q-68 143 -104.5 235.5t-59.5 147.5l-31 111q-8 23 -10 33t-2 16q-4 4 -7 11t1 11q-23 -55 -39 -95t-37.5 -85 t-53.5 -104.5t-85 -151.5q-16 -33 -32.5 -60.5t-27.5 -50.5l-12 -34q0 -10 -1 -16.5t-3 -10.5q3 -23 3 -44t-3 -41q-6 -40 -19.5 -68.5t-33 -46t-39.5 -17.5q-16 0 -22.5 4t-12.5 12q-19 24 -19 66q0 7 1 15q4 52 41 120v21l-19 40l-24 74l-76 211q-35 102 -57.5 187.5 t-33.5 157.5q-10 62 -10 116q0 10 1 19q2 62 16 122q-33 -4 -54.5 -6t-56.5 -6l-186 -12q-168 -14 -275.5 -39t-159.5 -63q-50 -36 -51 -87q0 -54 54 -127q41 -57 100.5 -105t130 -84t145 -56.5t146.5 -20.5l18 4l27 -35q-20 -4 -28.5 -5t-20.5 -1q-82 0 -173 25.5 t-176 69.5t-159 102.5t-121 124.5q-67 90 -66 158q0 56 44 96z" />
<glyph unicode="X" horiz-adv-x="1581" d="M-379 455q-10 78 -10 151q0 175 55 328q20 61 59 122.5t83.5 113t86.5 89t66 54.5q174 121 401 121q193 0 335.5 -67t207.5 -179l19 -33l71 100q90 94 190.5 136.5t188.5 42.5q74 0 121 -29t80 -86q31 -51 31 -109q0 -11 -1 -22q-7 -70 -59 -166q-20 -39 -48 -77 t-58.5 -71.5t-61 -62.5t-55.5 -49q-59 -49 -131 -87t-176 -93v-11q0 -67 22 -149q25 -88 66 -160q41 -74 104.5 -116t128.5 -42q29 0 65 15.5t71.5 40t68.5 57.5t57 68q16 23 35 52.5t33 51.5l49 -27q-14 -37 -30.5 -68.5t-40.5 -62.5q-25 -37 -68 -75.5t-95 -71.5 t-109.5 -54.5t-112.5 -21.5q-125 0 -209 54.5t-156 177.5l-35 57q-29 -55 -85 -103.5t-118 -89.5q-23 -18 -58.5 -36.5t-75.5 -34t-81 -24.5t-73 -9q-61 0 -108.5 25.5t-74.5 70.5q-14 25 -14 51q0 45 43 93q68 76 266 172l185 82l102 45q16 35 22.5 91t10.5 107q1 29 1 58 q0 90 -15 168q-19 102 -54 163q-61 109 -165.5 167.5t-233.5 58.5q-96 0 -181 -27t-153 -80q-72 -55 -121 -122.5t-82 -159.5q-39 -111 -47 -242q-2 -39 -2 -78q0 -94 13 -191q19 -138 68.5 -279.5t127.5 -276.5q98 -172 230 -311.5t281.5 -241t309.5 -158.5t318 -64 q12 -1 24 0q30 0 60 3q41 5 69 14q100 23 159.5 76t78.5 131q8 35 8 74q0 48 -12 102q-23 98 -88 211l-13 22h54q16 -29 27.5 -42t27.5 -40q98 -169 98 -296q0 -59 -21 -108q-67 -157 -315 -194q-27 -4 -61.5 -5t-69.5 -1q-176 0 -363.5 64.5t-363.5 180.5t-329.5 273.5 t-262.5 345.5q-149 261 -182 523zM360 119q6 -10 28 -19.5t56 -9.5q59 6 113.5 44t89.5 75q57 53 77.5 118.5t31.5 127.5q-70 -29 -133.5 -70t-106.5 -70q-94 -63 -133 -115q-27 -37 -27 -62q-1 -11 4 -19zM1009 733q1 -31 5 -67q82 41 166 92t143 110q55 53 86 110.5 t40 112.5q5 27 5 53t-5 51q-9 50 -32 89q-18 33 -41.5 45t-58.5 12q-57 0 -128 -56t-112 -169q-20 -47 -32.5 -83t-20.5 -85q-6 -47 -10 -83t-5 -68q-1 -16 -1 -32.5t1 -31.5z" />
<glyph unicode="Y" horiz-adv-x="1314" d="M-526 1446q-6 36 -6 68q0 107 63 174q82 86 242 86q287 0 508 -314q41 -59 73.5 -115.5t46.5 -105.5q45 -123 68 -278q18 -122 18 -241q0 -32 -2 -65l-10 -293q-1 -17 -1 -33q0 -45 8 -82q11 -50 28 -77q37 -49 80 -49q20 0 46 17.5t53.5 48t53 72.5t45.5 89q16 25 32 64 t38 96q16 41 26.5 64.5t16.5 58.5q3 21 3 50v14q-1 38 -3 87q-2 62 -2 111q0 98 8 143q8 53 36 84t65 31q16 0 29.5 -7t17.5 -16q25 -35 22 -77q-4 -20 -7 -38t-5 -38q-2 -4 -7 -25.5t-16 -62.5q-2 -10 -4 -21.5t-4 -27.5l-2 -29v-385l15 -406l-3 -161q84 92 174.5 209.5 t147.5 277.5l55 -27l-18 -47q-29 -76 -69 -141.5t-107 -155.5q-41 -49 -81 -95t-71 -81l-24 -22l2 -221q0 -35 -4.5 -89.5t-10.5 -118t-13 -132t-15 -132.5q-23 -111 -42.5 -197.5t-52.5 -170.5q-14 -33 -33.5 -72t-39 -73.5t-39 -64.5t-35.5 -44q-39 -33 -91 -51.5 t-102 -18.5q-66 0 -133 38t-114 104q-39 53 -53 128q-5 28 -4 56q0 48 14 96q29 113 75 215q35 68 77 134.5t95 136.5q51 59 95.5 112t97.5 107q59 61 100 103t58 69q4 0 7 6t9 14q6 25 9 41.5t4 38t-1 55t-4 90.5q0 41 -1 102v24q0 50 3 106q-1 38 -1 67v27q1 37 1 64.5 t-1 53t-3 62.5q-63 -176 -153 -280.5t-177 -104.5q-63 0 -116 35t-97 96q-25 35 -41 67t-16 60q-10 39 -13 70t-3 60.5t2 63.5t2 77l10 188q2 63 3 112q1 24 1 46.5t-1 43.5q-1 42 -3 79t-6 75q-10 121 -40 213.5t-83 165.5q-72 104 -167 165t-189 61q-78 0 -135.5 -31 t-85.5 -84q-23 -39 -30 -90q-4 -30 -4 -61q0 -22 2 -46q5 -55 24.5 -111.5t54.5 -103.5q53 -76 121.5 -115.5t150.5 -39.5q41 0 61.5 13t36.5 42l35 -31q-16 -41 -40.5 -54t-82.5 -13q-100 0 -195.5 57t-160.5 152q-35 49 -61.5 110.5t-34.5 118.5zM449 -1485 q23 -33 61.5 -54.5t79.5 -21.5q72 0 123 51.5t80 145.5l45 188q23 96 35 200t16 190l6 227l6 164q-86 -86 -180 -195.5t-158 -220.5q-14 -25 -32.5 -62.5t-37 -78.5t-34 -84t-21.5 -80q-34 -129 -34 -215q1 -91 45 -154z" />
<glyph unicode="Z" horiz-adv-x="1024" d="M-98 -1536q-1 24 -2 49q0 162 59 340q25 96 87.5 209t137.5 211q68 86 145 160.5t132 134.5q53 59 90 98t37 41q-2 49 -3 104.5t-15.5 110.5t-47.5 105.5t-96 89.5q-27 -16 -52.5 -35t-57 -35t-72.5 -28.5t-99 -18.5q-28 -3 -51 -3q-58 0 -87 18q-40 26 -44 77q-1 8 0 15 q0 45 22 77q26 37 63.5 57.5t78.5 29t68 8.5q39 0 68.5 -4.5t58 -10.5t59.5 -16t72 -23q82 76 134 183.5t70 227.5q10 67 11 135q0 53 -6 107q-14 122 -66 226q-53 106 -137 172.5t-176 66.5q-78 0 -136.5 -39.5t-93.5 -107.5q-37 -84 -37 -185.5t41 -189.5q29 -59 81 -94 t112 -35q78 0 122 72t46 211l53 -19q1 -21 1 -40q0 -123 -54 -201q-63 -90 -185 -90q-92 0 -163.5 47t-112.5 131q-38 82 -38 182v15q3 110 50 208q57 102 157.5 157.5t221.5 55.5q125 0 234.5 -77.5t181.5 -221.5q51 -109 60 -231q2 -28 2 -55q0 -95 -24 -192 q-32 -124 -100.5 -240.5t-173.5 -210.5q63 -35 103.5 -73t63 -79t32.5 -84t16 -86q143 152 233.5 280t121.5 220l65 -43l-4 -13q-29 -47 -70.5 -105t-87 -118.5t-90.5 -119t-80.5 -103.5t-58.5 -73l-22 -27q0 -25 1 -49.5t1 -56.5t1 -77t1 -108q2 -63 2 -140q0 -57 -1 -122 q-3 -152 -18 -308q-10 -145 -35.5 -264t-62.5 -237l-37 -131q-66 -154 -146.5 -235t-176.5 -81q-74 0 -146 45t-131 137q-90 138 -100 322zM13 -1492q0 -103 25 -196q26 -96 77 -176q41 -59 79.5 -83.5t88.5 -24.5q37 0 72.5 18.5t68.5 52t57.5 81.5t38.5 108l45 194l17 119 q8 94 12 183.5t6 191.5q1 68 1 146v80q-1 124 -5 288v38q0 15 1 26.5t2 23.5t1 29q-43 -43 -77 -76t-63.5 -65.5t-61 -69.5t-72.5 -88q-72 -88 -118 -166t-91 -168q-51 -119 -77 -235q-27 -120 -27 -231zM66.5 87.5q13.5 -11.5 34 -18t45 -6.5t47.5 3q53 16 98 36.5t74 42.5 q-47 23 -86 30t-84 9q-10 1 -19 1q-18 0 -36 -3q-26 -4 -46 -12t-32 -22q-10 -11 -9 -26q0 -23 13.5 -34.5z" />
<glyph unicode="_" d="M84 -33v68h367v-68h-367z" />
<glyph unicode="`" horiz-adv-x="294" d="M133 981q0 39 37 39q43 0 63 -49q18 -47 27 -162q4 -63 4 -68.5t2 -13.5h-22q-25 43 -43 82l-31 59q-37 74 -37 113z" />
<glyph unicode="a" horiz-adv-x="686" d="M3 200q-2 18 -2 35q0 40 11 74q14 35 39 66t53 51q25 20 53.5 29.5t55.5 9.5q37 0 62.5 -14.5t43.5 -40.5q4 -8 10.5 -16.5t12.5 -20.5l33 80h92l-12 -301q-2 -18 -3 -32q0 -23 7 -32q14 -20 45 -20q25 0 54.5 17t58 47t54 70t42.5 85l51 -35l-8 -8q-57 -123 -125 -183.5 t-158 -60.5q-35 0 -65.5 14.5t-47.5 36.5q-8 12 -9 20.5t-5 26.5q-29 -59 -71 -78.5t-85 -19.5q-39 0 -78.5 25.5t-68.5 66.5q-33 48 -40 108zM131 215q2 -35 11.5 -65.5t21.5 -49.5q23 -29 55 -28q23 0 46.5 9t35.5 42q4 16 6 38.5t6 39.5q5 38 6 71q0 17 -2 32 q-4 46 -24 77q-23 35 -60 35h-6q-23 -4 -39 -22.5t-30 -43.5q-18 -29 -24 -64q-4 -26 -4 -51q0 -10 1 -20z" />
<glyph unicode="b" horiz-adv-x="675" d="M0 223q16 35 32.5 75t20.5 73q12 25 13 59q8 25 10 63.5t8 92.5q13 200 13 334q0 34 -1 63q2 188 20.5 267t67.5 79q31 0 58 -37q23 -35 25 -118q0 -13 1 -28q0 -75 -14 -169q-20 -104 -29.5 -166.5t-15.5 -73.5q-2 -31 -4 -60.5t-4 -66.5t-4 -89t-4 -128q0 -80 1 -132 t3 -85t6 -50t12 -28q14 -23 30.5 -32t33.5 -9q18 0 43.5 18.5t48.5 41.5q35 41 46 89q5 23 5 43q0 22 -6 42q-10 14 -18.5 23.5t-14.5 19.5q-50 74 -50 108q0 31 40 31q29 0 55.5 -19.5t46.5 -47.5q18 -27 25.5 -45.5t11.5 -65.5q-2 -23 4 -38t16 -30q12 -18 36 -32.5 t46 -14.5q29 0 48.5 22.5t35.5 86.5l54 -37q-25 -70 -50.5 -92.5t-70.5 -22.5q-57 0 -127 56q-16 -41 -42 -76t-58.5 -60.5t-69.5 -41t-76 -15.5q-47 0 -88 22.5t-70 63.5q-20 29 -25 61q-3 18 -3 47q0 23 2 52l-41 -43z" />
<glyph unicode="c" horiz-adv-x="505" d="M25 303q35 72 101.5 119t133.5 47q47 0 90 -26.5t66 -67.5q13 -24 13 -45q0 -11 -4 -22q-11 -30 -50 -29q-31 0 -58.5 18t-40.5 41q-18 31 -4 49q10 2 4 12q-4 10 -13 12.5t-19 2.5q-20 0 -44 -19.5t-40 -60.5q-17 -52 -18 -106v-6q1 -56 26 -103q29 -55 102 -56 q66 0 138.5 61.5t119.5 160.5l52 -33l-11 -10q-82 -129 -158.5 -185.5t-179.5 -56.5q-150 0 -204 100q-26 47 -26 97q0 52 24 106z" />
<glyph unicode="d" horiz-adv-x="686" d="M9 199q-4 23 -4 45q0 36 11 67q10 35 32 65t50 52q55 37 111 37q66 0 108 -55q4 -8 8.5 -14.5t12.5 -22.5l4 215l6 395q2 106 6 174t12.5 107t21.5 53t36 14q14 0 30.5 -10t26.5 -27q23 -31 28 -115q1 -20 1 -42q0 -69 -12 -154l-31 -246l-4 -75l-8 -265l4 -157 q-1 -36 -1 -61.5t1 -41.5q2 -31 14 -47q14 -23 49 -22q25 0 52.5 17t54 48t49 71t33.5 85l49 -33l-2 -12q-47 -119 -113.5 -181.5t-146.5 -62.5q-82 0 -123 59l-13 29q-29 -61 -67.5 -74.5t-85.5 -13.5q-41 0 -84 25.5t-74 66.5q-31 46 -42 107zM125 246v-11q0 -36 11 -72 q13 -42 40 -65q16 -16 27.5 -21t27.5 -5q25 0 44.5 12t31.5 43q8 20 11.5 38.5t5.5 35.5q2 23 1 44q0 32 -3 60q-6 47 -29 76q-25 37 -64 37h-12q-43 -8 -67 -62q-10 -20 -16.5 -49.5t-8.5 -60.5z" />
<glyph unicode="e" horiz-adv-x="483" d="M4 192.5q0 45.5 19 98.5q20 45 55 82t78 65q31 14 60.5 24.5t55.5 10.5q29 0 53.5 -16.5t36.5 -42.5q8 -18 10.5 -36t-9 -38.5t-37 -44t-70.5 -53.5l-113 -76q2 -10 5 -20l8 -21q16 -33 39.5 -47.5t60.5 -14.5q59 4 100 33q43 31 83 75t75 114l41 -37l-8 -10 q-43 -76 -90 -124t-95 -77q-74 -37 -153 -37q-131 0 -180 100q-25 47 -25 92.5zM147 236q55 20 103 65q35 33 42 52q3 8 3 16q0 12 -6 24q-10 20 -37 21q-35 0 -62 -47q-16 -25 -26.5 -59.5t-16.5 -71.5z" />
<glyph unicode="f" horiz-adv-x="423" d="M-20 172q12 29 19 45t11 45l8 21q-19 51 -19 75q0 7 2 12q7 22 54 36q-2 10 -2 14t2 14q0 23 2 85q0 12 1 27q0 57 -7 142q0 59 5 131t12.5 144.5t16.5 140t19 121.5q18 100 43 141t62 41q16 0 33.5 -11.5t29.5 -29.5q18 -25 25 -63q3 -21 3 -49q0 -23 -2 -49 q-5 -58 -22.5 -140t-48.5 -195q-10 -45 -16 -73.5t-10 -51t-7.5 -45t-7.5 -55.5l-2 -35l4 -176l2 -39h324l2 -43h-334l-4 -342q37 -117 72 -259t69 -302q29 -131 40.5 -259t23.5 -257q9 -102 8 -180q0 -91 -11 -151q-22 -110 -112 -109q-41 0 -94 21.5t-76 76.5 q-14 35 -21 65.5t-11.5 65.5t-7.5 79t-7 105q-10 136 -10 274q0 34 1 69q3 173 3 339q0 113 1 184.5t3 131t4 123t2 163.5l-45 -40zM158 -823.5q0 -75.5 1 -144t4 -127t5 -95.5q6 -51 12 -100t17.5 -88t30 -62.5t48.5 -23.5q31 0 50 37q17 33 16 94v14q1 24 1 50 q0 52 -3 112q-4 90 -13.5 188.5t-22.5 201.5t-30 202q-4 29 -20 103.5t-45 199.5l-45 196v-266v-163q0 -62 -1 -100t-3 -79q-2 -74 -2 -149.5z" />
<glyph unicode="g" horiz-adv-x="710" d="M-55 -1108q14 61 28.5 117.5t36.5 122.5q12 35 36 84t48 102q35 72 73 144.5t71 125.5q29 45 46 76t27 49q6 12 12.5 22.5t10.5 26.5l4 158q-1 31 -1 60v28q1 41 -3 60l-2 32q-33 -53 -73 -76.5t-81 -23.5t-81 23.5t-66 68.5q-31 51 -31 117q0 54 20 102q16 35 40 65 t53 54q27 23 58.5 32t59.5 9q29 0 58.5 -17.5t46.5 -45.5l7 -15l11 -22l29 78h82l-12 -578q53 72 75.5 102.5t32.5 43t14.5 19.5t20.5 30q14 23 34.5 52t41 60t37 58.5t26.5 48.5l45 -33l-6 -12q-14 -29 -41.5 -73t-63.5 -96.5t-78 -109.5t-83 -113l-57 -81l-2 -27l2 -266 q1 -48 1 -95q0 -150 -11 -276q-13 -166 -44 -289q-12 -55 -36.5 -112.5t-58.5 -103.5t-71.5 -74.5t-74.5 -28.5q-47 0 -91.5 29.5t-72.5 76.5q-35 59 -46 132q-6 38 -6 80q0 38 5 79zM74 -1386q16 -27 41.5 -44.5t54.5 -17.5q31 0 58.5 37t50 94t38 126t19.5 132t6 120 q1 19 1 40q0 43 -3 98l-6 213l2 238l-55 -111q-31 -53 -49.5 -95t-32.5 -71q-16 -33 -29.5 -67.5t-26.5 -69.5q-25 -72 -47 -143.5t-35 -130.5q-17 -107 -17 -197q0 -102 30 -151zM130 165q7 -38 24 -65q20 -31 49 -30q29 0 49 20.5t41 48.5q10 12 15 30.5t9 33.5q9 42 9 76 q0 14 -1 28q-5 45 -22 74q-18 33 -55 33h-8q-27 -2 -44.5 -18.5t-33.5 -39.5q-10 -23 -17.5 -49t-13.5 -55q-4 -26 -4 -49q0 -20 3 -38z" />
<glyph unicode="h" horiz-adv-x="749" d="M4 223l3 11q3 11 8 26.5t11.5 31t10.5 27.5q10 23 17 51.5t9 59.5l9 156q4 137 7 235.5t3 161.5q-1 39 -1 72q0 51 2 91q3 67 12 107.5t25.5 58t39.5 17.5q31 0 57 -37q20 -29 24 -115q1 -15 0 -32q0 -75 -12 -162q-12 -96 -21 -172t-13 -152q-4 -61 -5 -132v-132 q0 -72 3 -141l14 27q47 90 86 136t86 46q41 0 77 -17.5t58 -50.5q12 -16 19.5 -30.5t9.5 -33t1 -45t-3 -65.5q-3 -27 -4 -49q0 -19 3 -34q5 -34 17 -50q14 -20 43 -20q23 0 60.5 34.5t66.5 81.5l53 103l47 -27q-53 -125 -117.5 -192.5t-134.5 -67.5q-43 0 -84.5 22.5 t-72.5 63.5q-24 30 -24 75q0 43 18 136q0 41 -2 64.5t-13 33.5q-8 12 -20 13q-18 0 -45 -25t-49 -74q-16 -33 -27.5 -85t-18 -102t-10.5 -86l-4 -36h-123l-20 252l-41 -49z" />
<glyph unicode="i" horiz-adv-x="411" d="M4 223q8 23 14.5 40.5t18.5 53.5q14 41 17 66t9 66h132v-324q0 -12 4 -19.5t12 -17.5q4 -6 19.5 -13t33.5 -7q20 0 45 18t49.5 48t45 69t32.5 82l49 -33l-4 -12q-90 -240 -235 -240q-45 0 -87 21.5t-71 58.5q-27 37 -25 94l-6 53l-18 -24zM68 870q-2 10 -3 19q0 25 17 43 q23 25 61 24q29 0 47 -13q21 -15 21 -49q0 -25 -12 -47q-14 -26 -56 -28q-65 0 -75 51z" />
<glyph unicode="j" horiz-adv-x="360" d="M2 225l35 82q8 33 16 56.5t8 66.5l11 19h129l2 -297l-2 -1127q4 -55 4 -124.5t4 -134t15.5 -117t35.5 -72.5q10 -10 19.5 -17.5t15.5 -7.5q18 0 29.5 13.5t17.5 37t8 53t4 62.5l17 377l-2 1141l49 2l-1 -88q-1 -88 -2 -253q-1 -82 -1 -183t1 -219q1 -237 3 -535 q-1 -44 -1 -88.5t1 -89.5v-25q0 -75 -10 -141q-20 -125 -99 -125q-53 0 -91 25.5t-63.5 64.5t-41 87t-21.5 95q-8 57 -14 117.5t-10.5 131t-5.5 154.5v59q0 61 1 130v878l-26 -30zM57 864q-2 10 -2 19q0 25 17 43q23 25 61 24q35 0 55.5 -24.5t16.5 -42.5q6 -70 -72 -70 q-66 0 -76 51z" />
<glyph unicode="k" horiz-adv-x="733" d="M0 229l41 88q23 47 25 73t4 61q6 109 9 189.5t5 142.5q1 42 1 77v34q-1 48 -5 89q0 96 3 162.5t12 107.5t25.5 58.5t39.5 17.5q35 0 57 -37q23 -29 28 -113q1 -18 1 -39q0 -71 -15 -157l-30 -246q-2 -8 -2 -23.5t-1 -58.5t-3 -126t-7 -226q20 37 37 67.5t33 52t36.5 33 t49.5 11.5q41 0 81 -13.5t77 -60.5q23 -32 22 -59q0 -61 -114 -98q33 -18 49 -32t35 -38l41 -60q14 -18 24 -27t27 -9q23 0 60.5 31.5t66.5 82.5l57 99l39 -31q-51 -125 -114.5 -188.5t-133.5 -63.5q-41 0 -72.5 16.5t-60.5 57.5q-10 10 -20.5 29.5t-20.5 37.5 q-12 18 -18.5 29.5t-12.5 22.5l-4 6q-4 4 -10 11t-10 7q-2 4 -23 4q-8 2 -19 9.5t-16 11.5q-14 23 25 22q6 0 18.5 -1t28.5 -5q41 14 50 51q2 9 3 19q0 27 -20 53q-18 27 -41 27q-29 0 -49.5 -30t-35.5 -76t-23.5 -98t-13.5 -98.5t-5 -76t2 -29.5h-115l-18 252l-41 -49z" />
<glyph unicode="l" horiz-adv-x="411" d="M2 223q8 23 15.5 41.5t17.5 54.5q12 41 20 66t13 66q4 111 7 192.5t4 143t1 108.5v88q0 96 2 162.5t10 107.5t23.5 58.5t38.5 17.5q35 0 61 -37q23 -29 28 -113q1 -20 1 -42q0 -69 -13 -154l-34 -246q-2 -16 -3 -35.5t-1 -42.5l-7 -264q-4 -94 -5 -162v-25q0 -50 3 -83 q-2 -4 4.5 -15.5t10.5 -17.5q4 -8 18 -16t31 -8q25 0 53.5 17t55 47t48 70t33.5 87l58 -37l-7 -10q-98 -242 -266 -242q-41 0 -80 21.5t-67 60.5q-18 29 -24 54q-2 12 -2 30q0 22 3 55l-20 -18z" />
<glyph unicode="m" horiz-adv-x="1075" d="M-2 221q16 25 24.5 46.5t16.5 45.5q8 27 16 51.5t13 43.5l10 41h102l8 -197l15 24q45 98 92 141.5t100 43.5q66 0 101 -53q14 -23 21 -52q5 -18 5 -55q0 -21 -2 -49l12 24q47 98 94.5 141.5t100.5 43.5q35 0 69.5 -18.5t57.5 -53.5q10 -14 15 -27.5t6.5 -32t-3 -45 t-12.5 -67.5q-8 -53 -8 -82t10 -47q6 -10 19.5 -17.5t25.5 -7.5q23 0 56.5 28t64.5 75q10 14 23.5 34.5t24.5 38t18.5 30t5.5 14.5l47 -35l-4 -8q-59 -121 -124 -182.5t-142 -61.5q-39 0 -76 21.5t-62 58.5q-23 35 -25 79q0 5 -1 10q0 44 22 130q8 41 10.5 63.5t-8.5 38.5 q-4 6 -9 8.5t-17 2.5q-39 0 -97 -101q-18 -31 -34.5 -83t-28.5 -101t-20 -86l-7 -37h-114l-2 217l2 105q4 35 -1.5 61.5t-23.5 24.5q-20 -2 -48 -28t-54 -73q-18 -33 -34 -85t-26 -101q-12 -57 -22 -121h-125l-2 248l-45 -49z" />
<glyph unicode="n" horiz-adv-x="745" d="M-6 223l41 92q6 12 13 35t13.5 45.5t10.5 38.5l4 17h106l8 -195l13 27q86 182 190 182q80 0 125 -72q24 -35 24 -71q0 -8 -1 -15l-17 -108q-2 -25 -2 -43q0 -14 1 -25q3 -25 14 -39q16 -25 41 -24q25 0 55.5 27.5t64.5 74.5q10 14 23.5 33.5t24 37t17.5 30.5l7 14l47 -33 l-4 -10q-113 -242 -262 -242q-45 0 -83 21.5t-62 58.5q-10 18 -15.5 34.5t-5.5 39t5 57.5t16 88q10 43 11 63.5t-5 30.5t-14.5 12.5t-10.5 2.5q-49 0 -106 -99q-18 -33 -34 -85t-28 -101t-19 -85l-7 -36l-117 -2l-2 252l-49 -49z" />
<glyph unicode="o" horiz-adv-x="616" d="M-6 236q4 72 49 126q14 23 33.5 37.5t36.5 30.5q57 43 118 43q59 0 109.5 -31.5t85.5 -87.5q6 -10 9 -17t6 -16.5t7.5 -22.5t10.5 -36q4 -12 9 -19t9 -16q10 -16 32.5 -29.5t39.5 -13.5q33 0 52.5 22.5t43.5 82.5l49 -37q-29 -70 -54.5 -91.5t-66.5 -21.5q-57 0 -127 49 l-4 -18l-18 -41q-12 -23 -29.5 -49.5t-48.5 -44.5q-29 -20 -60.5 -27.5t-72.5 -7.5q-121 0 -184 104q-35 54 -36 118q1 7 1 14zM131 264q-2 -22 -2 -42q0 -72 29 -118q29 -45 73 -45q23 0 54.5 16.5t48.5 43.5q19 30 18 67q0 15 -1 48.5t-1 54.5q-12 16 -23.5 27.5 t-17.5 21.5q-10 18 -12 30.5t-2 28.5q-14 14 -24.5 17.5t-26.5 3.5t-31.5 -6t-26.5 -19q-8 -10 -14 -17t-12 -20q-23 -39 -29 -92z" />
<glyph unicode="p" horiz-adv-x="802" d="M-2 227q-2 2 16.5 41t40.5 111l43 123q0 20 -1 32.5t3 16.5v19q0 32 5 57q7 33 14 55q10 23 22.5 30t28.5 7q29 0 47 -29q16 -20 20 -56q1 -6 0 -13q0 -29 -12 -56l-10 -63q-8 -45 -18.5 -131t-16.5 -246q-4 -53 -9 -154q-4 -72 -4 -170q0 -40 1 -84q2 -154 2 -259v-154 q0 -154 -3 -280t-3 -220t4 -154.5t16 -81.5q10 -16 32 -22t32 22q8 23 11 101t4 184.5t1 224.5v226l4 579q0 158 4 258.5t15 153.5q10 63 26 98q31 74 99 74q51 0 107 -36t102 -99q27 -39 41 -79t20 -85h6q31 0 51.5 4t36 17.5t27.5 37t28 62.5l50 -31q-12 -31 -21.5 -49.5 t-16.5 -29.5t-14.5 -17t-15.5 -15q-14 -14 -41 -18t-92 -4q-2 -25 -10 -47q-8 -18 -22.5 -36.5t-41.5 -27.5q-16 -10 -46 -12t-58 -2q-84 0 -121 49q-15 21 -15 39q0 17 13 31q27 29 96 41q41 8 109 8q-8 29 -30 66.5t-48 74.5q-35 49 -60.5 70.5t-44.5 21.5q-31 0 -49 -51 q-10 -29 -16 -82t-8 -121l2 -290l2 -742v-279q0 -105 -3 -166t-10.5 -89.5t-23.5 -48.5q-14 -20 -43 -29.5t-59.5 -9.5t-58.5 10t-38 33q-28 55 -27 134v20v21q0 72 -3 169q-2 82 -4.5 195.5t-2.5 295.5v797l19 86l-45 -47zM444 94q-6 -9 -5 -17q0 -10 7 -20q14 -20 64 -20 l45 8q23 4 36 27q8 14 8 32q0 11 -3 25h-16q-20 0 -40 -2t-38 -4q-46 -11 -58 -29z" />
<glyph unicode="q" horiz-adv-x="610" d="M4 197q-4 24 -4 45q0 35 10 67q10 35 33 66t51 51q51 37 107 37q37 0 62.5 -12.5t47.5 -42.5q8 -10 23 -37l28 80h97v-301v-517q2 -88 3 -174t1 -175t1 -185t3 -203q0 -66 2 -113t3 -78.5t4 -53t7 -35.5q8 -31 23.5 -49.5t44.5 -16.5q23 2 37 14.5t18 53.5q4 43 6 124.5 t2 180t-1 204t-1 197.5v907l66 5l4 -979q4 -123 4 -233q0 -73 -2 -141q-4 -169 -14 -267q-12 -63 -36 -91t-71 -32q-9 -1 -18 -1q-45 0 -84 17q-47 20 -70 80q-10 23 -16 52.5t-10.5 62t-6.5 64.5t-4 58q-4 57 -8 136.5t-7 183.5t-3 235.5t4 294.5l-2 394q0 2 -13.5 -9.5 t-34 -24.5t-45 -24.5t-46.5 -11.5q-39 0 -81 25.5t-71 66.5q-33 44 -43 105zM125 225q0 -35 12 -65q14 -35 37 -62q10 -12 22.5 -20t28.5 -8q12 0 27.5 8t30 24.5t24.5 41t10 55.5q2 24 2 45q0 33 -4 61q-6 47 -26 76q-25 33 -60 33q-35 -2 -54 -18.5t-32 -41.5 q-10 -23 -14 -54q-4 -34 -4 -75z" />
<glyph unicode="r" horiz-adv-x="552" d="M-6 209l5 9q5 9 13 24.5t17.5 33t15.5 33.5q31 70 33 127h104l13 -182q10 14 16 24.5t13 19.5t18.5 20.5t33.5 27.5l15 19q-4 21 -4 38q0 73 78 72q20 0 40.5 -8t30.5 -25q20 -33 0 -57.5t-76 -58.5q10 -68 41 -115q12 -20 34 -32.5t48 -12.5q25 0 45.5 22.5t42.5 81.5 l50 -34q-27 -72 -50.5 -94.5t-66.5 -22.5q-45 0 -86 25.5t-70 66.5q-14 23 -21.5 42t-15.5 48l-59 -70q-41 -51 -46 -110q-2 -23 -2 -46q0 -37 5 -75h-135v236l-47 -50z" />
<glyph unicode="s" horiz-adv-x="552" d="M-14 222q10 30 57 30q23 0 33 -4t33 -15l8 5q2 6 10 19t17.5 30.5t19.5 37t16 35.5l33 74q-21 48 -21 81q0 63 80 63q33 0 54 -33q12 -23 10 -34t-17 -40q-4 -8 -10 -17.5t-10 -25.5l18 -22l43 -50q25 -25 46.5 -51t35.5 -53q16 -29 28.5 -52.5t23.5 -43.5q25 27 48 59.5 t40 69.5l51 -33l-10 -10q-61 -98 -121 -153.5t-127 -76.5q-16 -4 -46 -9q-21 -4 -37 -4q-6 0 -11 1q-66 0 -124.5 19.5t-99.5 54.5q-14 12 -32.5 33.5t-26.5 37.5q-15 32 -16 57q1 11 4 20zM156 201q10 -14 14 -20.5t8 -14.5q18 -29 18.5 -49.5t-10.5 -26.5q-4 -4 -10 -4 t2 -14q6 -10 36 -20.5t65 -10.5q27 0 49 6q14 4 27 18q10 10 11 28q0 6 -1 11q0 25 -5.5 44.5t-17.5 47t-34.5 69.5t-61.5 110l-15 -45q-4 -16 -13 -36t-20.5 -38t-22.5 -33.5t-19 -21.5z" />
<glyph unicode="t" horiz-adv-x="423" d="M-233 668q-2 8 13 11t37.5 4t46 0t40.5 -1h87q34 0 79 2l8 182q2 45 4 74t3 45t3 25.5t4 15.5q20 14 53 14q25 0 35 -12q2 -2 0 -8q6 -6 6 -29l-2 -307q0 -2 39 -1t98.5 1t130 1t134 1t109.5 -1t57 -3q10 0 14 -31q-10 -4 -14 -4h-15q-35 -2 -106 -2h-180h-269l2 -266 q2 -133 7.5 -198.5t21.5 -88.5q10 -14 21.5 -19t33.5 -5q25 0 51.5 17t51 47t45 70t33.5 85l55 -35l-6 -12q-47 -121 -106.5 -180.5t-137.5 -59.5q-96 0 -158 80q-10 14 -17 25.5t-11.5 26.5t-8.5 36.5t-8 54.5l-16 -20l-35 20q16 27 23.5 47.5t17.5 55.5q6 23 11 45t7 53 t2 75v111l-2 35h-288z" />
<glyph unicode="u" horiz-adv-x="745" d="M-4 225l4 11q4 10 11 25t14.5 32.5t11.5 32.5q16 51 17 72.5t5 54.5h136v-199v-41q0 -27 1 -54.5t4 -50t9 -30.5q12 -12 24.5 -18.5t34.5 -6.5q23 0 44.5 17.5t39 48.5t26.5 70.5t9 84.5l6 179h135l-6 -301q0 -16 2 -34t11 -28q10 -14 19 -19t28 -5q23 0 50 18t53 49 t48.5 71t34.5 83l53 -35l-4 -12q-49 -125 -113.5 -182.5t-148.5 -57.5t-135 68q-4 4 -6 12t-6 18q-35 -53 -72 -75.5t-90 -22.5q-102 0 -164 80q-23 33 -28 62q-3 16 -3 43q0 21 2 48l-22 -30z" />
<glyph unicode="v" horiz-adv-x="667" d="M0 223l4 10q4 10 9 25.5t9.5 32t8.5 28.5q6 27 11 44.5t8 32t6 26.5t5 29h136l-17 -285q0 -59 15 -80q25 -35 61 -35q31 0 60.5 18.5t52.5 47.5q33 41 46 89q7 25 7 46q0 20 -6 37q-14 16 -21.5 25.5t-15.5 19.5q-47 66 -49 100.5t39 34.5q25 0 52.5 -17.5t47.5 -45.5 q18 -27 26.5 -46.5t16.5 -68.5q-2 -23 3 -36t15 -28q14 -18 37 -32.5t43 -14.5q31 0 50.5 22.5t31.5 82.5l58 -33q-23 -72 -47.5 -93.5t-69.5 -21.5q-61 0 -129 56q-31 -80 -98.5 -136.5t-147.5 -56.5q-55 0 -102 22.5t-78 63.5q-18 25 -25 47q-5 17 -4 48v22l2 20l-18 -20z " />
<glyph unicode="w" horiz-adv-x="1030" d="M0 223l10 31q4 14 10.5 30.5t10.5 34.5q18 47 22 73t13 59h131q-4 -61 -6.5 -106.5t-4.5 -82.5t-2 -69.5t2 -69.5q2 -14 5.5 -23.5t7.5 -13.5q10 -14 25.5 -24.5t31.5 -10.5q29 0 59.5 18.5t53.5 47.5q25 29 34 64.5t11 107.5q0 57 3 92t11 53.5t23.5 23.5t40.5 5 q14 0 26 -3t21 -16q6 -10 9 -26.5t5 -36.5q-6 -35 -8 -84t-2 -117l-4 -43q0 -16 6 -28.5t12 -22.5q10 -14 23.5 -24.5t35.5 -10.5q29 0 57.5 18.5t51.5 47.5q35 41 48 89q6 22 6 40q0 23 -9 43l-35 45q-47 66 -49 100.5t37 34.5q29 0 55.5 -17.5t46.5 -45.5 q18 -27 26.5 -46.5t16.5 -68.5q4 -23 5 -36t12 -28q14 -18 38.5 -32.5t47.5 -14.5q33 0 49 22.5t35 82.5l51 -33q-18 -72 -44 -93.5t-67 -21.5q-68 0 -137 56q-27 -86 -95.5 -139.5t-148.5 -53.5q-113 0 -159 68q-8 10 -13.5 17t-11.5 19q-37 -37 -85 -68.5t-105 -35.5 q-47 0 -90.5 24.5t-71.5 61.5q-18 25 -24 54q-2 13 -2 32q0 22 3 51l-22 -20z" />
<glyph unicode="x" horiz-adv-x="790" d="M20 270l17 37q41 92 87 127t99 35q55 0 93 -13.5t61 -45.5l4 -11q20 16 39.5 31.5t54.5 28.5q31 6 57.5 8t61.5 2q33 0 61.5 -12.5t44.5 -34.5q10 -16 11 -31q0 -17 -15 -33q-27 -29 -125 -65q-49 -18 -74.5 -29.5t-58.5 -19.5l2 -15q2 -14 5.5 -33.5t7.5 -39t12 -31.5 q18 -29 51 -49.5t68 -20.5q35 4 75.5 18.5t67.5 39.5q33 29 51.5 71.5t40.5 102.5l47 -33l-4 -10q-29 -68 -54.5 -113t-62.5 -78q-35 -27 -81 -40t-91 -13q-70 0 -116.5 19.5t-100.5 68.5q-16 -12 -30.5 -26.5t-30.5 -24.5q-29 -18 -55.5 -27.5t-59.5 -9.5q-29 0 -54.5 13.5 t-41.5 39.5q-16 25 -16 47q0 19 12 35q27 35 106 68l86 35l27 14q0 39 -5 67.5t-22 55.5q-12 18 -30.5 29.5t-32.5 11.5q-35 0 -60.5 -35t-66.5 -111l-14 -26zM142 94q0 -11 10 -24q8 -10 24.5 -13.5t26.5 -3.5q16 0 32.5 11.5t26.5 21.5q23 25 31 56.5t8 60.5 q-27 -10 -51.5 -21.5t-42.5 -21.5q-16 -10 -31.5 -19.5t-23.5 -20.5q-10 -13 -10 -26zM449 297l92 37q47 23 68 39q13 10 13 22q0 8 -6 17q-8 10 -14 15t-20 5q-23 0 -41.5 -7t-40.5 -22q-18 -18 -32.5 -46.5t-18.5 -59.5z" />
<glyph unicode="y" horiz-adv-x="663" d="M-2 225q4 16 12 35q4 14 10.5 30.5t10.5 28.5q4 18 10 41t12 43.5t9.5 35t0.5 14.5h130l-9 -299q-4 -29 1 -44.5t16 -27.5q8 -10 22.5 -19.5t28.5 -9.5q16 0 32.5 14.5t34.5 36.5q12 18 23.5 42t21 48.5t15.5 46t6 35.5l12 123q4 33 26.5 51.5t59.5 18.5q29 0 45 -16 q12 -14 12.5 -29.5t-4 -34t-9.5 -41t-7 -51.5l-8 -147v-517q2 -88 3 -174t1 -175t1 -185t3 -203q0 -66 2 -113t3 -78.5t4 -53t8 -35.5q8 -31 23 -49.5t44 -16.5q23 2 37 14.5t18 53.5q4 43 6.5 124.5t2.5 180t-1 204t-1 197.5v907l65 5l4 -979q4 -123 4 -233q0 -73 -2 -141 q-4 -169 -14 -267q-12 -63 -35.5 -91t-71.5 -32q-9 -1 -18 -1q-45 0 -84 17q-47 20 -70 80q-10 23 -16 52.5t-10 62t-6 64.5t-4 58q-4 57 -8.5 136.5t-7.5 183.5t-3 235.5t4 294.5l-4 426q-35 -59 -69.5 -80.5t-81.5 -21.5q-51 0 -88 21.5t-66 60.5q-20 27 -25.5 49.5 t-5.5 58.5q-2 6 0 14.5t4 20.5l-24 -22z" />
<glyph unicode="z" horiz-adv-x="669" d="M-96 -1108q14 61 28.5 117.5t36.5 122.5q12 35 36 84t48 102q35 72 73 144.5t71 125.5q41 66 65.5 112t30.5 62q2 -2 6 13.5t8 38t5 49t-1 45.5q2 35 -10 63.5t-22 34.5q-12 -27 -36 -50.5t-65 -33.5q-10 0 -17 3t-14 18q-10 27 8.5 60.5t59.5 59.5q27 12 45.5 34 t27.5 45.5t13 47t4 37.5q1 12 1 24q0 29 -7 57q-10 40 -27 67q-12 18 -30.5 29.5t-32.5 11.5q-35 0 -60.5 -35t-66.5 -111l-14 -26l-48 26l17 37q41 92 87 127t99 35q55 0 97 -23.5t65 -68.5q28 -43 28 -92q0 -56 -20 -105q-10 -29 -27.5 -59.5t-41.5 -59.5 q43 -20 64.5 -76.5t23.5 -113.5q0 -2 16 19.5t38.5 52t47.5 65.5t41 58q14 23 34.5 52t41 60t37 58.5t26.5 48.5l45 -33l-6 -12q-8 -14 -23.5 -38t-35 -54.5t-43 -64.5t-45.5 -67q-53 -78 -119 -168l-53 -81l-4 -293q1 -48 1 -95q0 -150 -11 -276q-13 -166 -44 -289 q-12 -55 -36.5 -112.5t-58.5 -103.5t-71.5 -74.5t-74.5 -28.5q-47 0 -91 29.5t-73 76.5q-35 59 -46 132q-6 38 -6 80q0 38 5 79zM33 -1386q16 -27 41.5 -44.5t54.5 -17.5q31 0 58.5 37t50 94t38 126t19.5 132t6 120q1 19 1 40q0 43 -3 98l-6 213l2 238l-55 -111 q-31 -53 -49.5 -95t-32.5 -71q-16 -33 -29.5 -67.5t-26.5 -69.5q-25 -72 -47 -143.5t-35 -130.5q-17 -107 -17 -197q0 -102 30 -151z" />
<glyph unicode="&#xaa;" horiz-adv-x="686" d="M3 200q-2 18 -2 35q0 40 11 74q14 35 39 66t53 51q25 20 53.5 29.5t55.5 9.5q37 0 62.5 -14.5t43.5 -40.5q4 -8 10.5 -16.5t12.5 -20.5l33 80h92l-12 -301q-2 -18 -3 -32q0 -23 7 -32q14 -20 45 -20q25 0 54.5 17t58 47t54 70t42.5 85l51 -35l-8 -8q-57 -123 -125 -183.5 t-158 -60.5q-35 0 -65.5 14.5t-47.5 36.5q-8 12 -9 20.5t-5 26.5q-29 -59 -71 -78.5t-85 -19.5q-39 0 -78.5 25.5t-68.5 66.5q-33 48 -40 108zM131 215q2 -35 11.5 -65.5t21.5 -49.5q23 -29 55 -28q23 0 46.5 9t35.5 42q4 16 6 38.5t6 39.5q5 38 6 71q0 17 -2 32 q-4 46 -24 77q-23 35 -60 35h-6q-23 -4 -39 -22.5t-30 -43.5q-18 -29 -24 -64q-4 -26 -4 -51q0 -10 1 -20z" />
<glyph unicode="&#xab;" horiz-adv-x="860" d="M150 -219q109 86 102 149q-6 29 -31 50q-37 29 -39 63q-6 33 15 57q14 23 45 23q59 0 71 -86q6 -72 -34 -146q-39 -74 -115 -129zM352 -221q109 86 103 149q-6 29 -31 49q-37 29 -39 64q-6 33 14 57q14 23 45 23q59 0 72 -86q6 -72 -35 -146q-39 -74 -114 -129z" />
<glyph unicode="&#xad;" d="M84 199v67h367v-67h-367z" />
<glyph unicode="&#xb2;" horiz-adv-x="704" d="M4 20q12 57 25.5 99.5t34 76t50 60.5t76.5 51l142 82q98 55 134 126t7 163q-23 78 -75 125t-115 47q-27 0 -50.5 -11.5t-41 -27.5t-25.5 -36.5t-2 -41.5q2 -10 11 -20.5t15 -12.5q4 0 10.5 -5t20.5 -7q23 -8 40.5 -28.5t21.5 -43.5q14 -39 -6.5 -65.5t-61.5 -26.5 q-47 0 -87 34t-56 89q-18 53 -8 103.5t42.5 88.5t83 61.5t115.5 23.5q113 0 198 -70t118 -176q18 -59 15 -107.5t-30.5 -90.5t-81 -77.5t-133.5 -70.5q-49 -20 -83 -35.5t-60.5 -30t-48 -30t-41.5 -33.5q33 4 74.5 -5.5t80.5 -25.5q45 -16 70 -27.5t42 -18.5t34.5 -11 t48.5 -9q25 0 59.5 26t69.5 71l43 -37l-16 -19q-37 -43 -66 -72.5t-51.5 -48t-43 -25.5t-42.5 -7q-33 0 -69 8t-75 23q-47 14 -70.5 25t-38.5 18.5t-30.5 10.5t-44.5 3q-31 0 -47 -19.5t-31 -62.5z" />
<glyph unicode="&#xb3;" horiz-adv-x="720" d="M12 197q-20 66 2.5 106.5t77.5 40.5q41 0 75 -26.5t48 -65.5q10 -31 3 -52.5t-34 -27.5l-18 -4q-14 -14 -6 -37q10 -33 59 -57.5t107 -24.5q37 0 70.5 16.5t56.5 40.5q20 25 34.5 60t20.5 71.5t5 74.5t-11 71q-14 47 -48 74.5t-81 27.5q-4 0 -15.5 -2t-25.5 -2l-19 49 q27 4 42.5 8.5t47.5 8.5q47 41 70 95t6 108q-14 41 -50 70.5t-81 29.5q-47 0 -84 -35t-67 -94l-62 35q88 168 248 168q82 0 143.5 -50.5t81.5 -121.5q14 -43 2 -90.5t-53 -81.5q-14 -10 -24.5 -18.5t-47.5 -31.5q74 -16 120 -53t69 -108q20 -70 -2.5 -142.5t-96.5 -134.5 q-51 -45 -114.5 -68.5t-128.5 -23.5q-55 0 -107.5 15.5t-95.5 42t-74 62.5t-43 77z" />
<glyph unicode="&#xb9;" horiz-adv-x="569" d="M0 498q53 41 91 69.5t79 67.5q37 35 63.5 59.5t51 54t54.5 69.5t73 106h39l-9 -924l-168 2l27 633q-59 -66 -115.5 -106t-136.5 -80z" />
<glyph unicode="&#xba;" horiz-adv-x="616" d="M-6 236q4 72 49 126q14 23 33.5 37.5t36.5 30.5q57 43 118 43q59 0 109.5 -31.5t85.5 -87.5q6 -10 9 -17t6 -16.5t7.5 -22.5t10.5 -36q4 -12 9 -19t9 -16q10 -16 32.5 -29.5t39.5 -13.5q33 0 52.5 22.5t43.5 82.5l49 -37q-29 -70 -54.5 -91.5t-66.5 -21.5q-57 0 -127 49 l-4 -18l-18 -41q-12 -23 -29.5 -49.5t-48.5 -44.5q-29 -20 -60.5 -27.5t-72.5 -7.5q-121 0 -184 104q-35 54 -36 118q1 7 1 14zM131 264q-2 -22 -2 -42q0 -72 29 -118q29 -45 73 -45q23 0 54.5 16.5t48.5 43.5q19 30 18 67q0 15 -1 48.5t-1 54.5q-12 16 -23.5 27.5 t-17.5 21.5q-10 18 -12 30.5t-2 28.5q-14 14 -24.5 17.5t-26.5 3.5t-31.5 -6t-26.5 -19q-8 -10 -14 -17t-12 -20q-23 -39 -29 -92z" />
<glyph unicode="&#xbb;" horiz-adv-x="860" d="M150 678q109 86 102 149q-6 29 -31 50q-37 29 -39 63q-6 33 15 57q14 23 45 23q59 0 71 -86q6 -72 -34 -146q-39 -74 -115 -129zM352 676q109 86 103 149q-6 29 -31 49q-37 29 -39 64q-6 33 14 57q14 23 45 23q59 0 72 -86q6 -72 -35 -146q-39 -74 -114 -129z" />
<glyph unicode="&#xc0;" horiz-adv-x="1681" d="M1157 1817q0 39 37 39q43 0 63 -49q18 -47 27 -162q4 -63 4 -68.5t2 -13.5h-22q-25 43 -43 82l-31 59q-37 74 -37 113zM-150 355q16 50 89 51q27 0 57.5 -11.5t60 -30t55 -43t42.5 -53.5q21 -37 20 -66q0 -12 -3 -23q-11 -38 -56 -38h-17q-31 0 -18 -16q8 -14 30.5 -27.5 t53.5 -22.5t68.5 -15.5t76.5 -6.5q160 0 293 78q27 16 48.5 32.5t41 37t40 48t44.5 64.5q-176 98 -275.5 187.5t-160.5 191.5q-45 74 -56 136q-4 23 -4 44q0 35 12 63q19 44 73 67q49 22 124 22h13q70 -4 156.5 -31.5t164.5 -60.5q90 -37 183 -86q18 39 32.5 75.5t29.5 75.5 t35.5 82t51.5 99q61 111 107 168q29 37 69.5 65.5t71.5 28.5q70 0 110 -66q10 -16 13.5 -35.5t-0.5 -58.5l-15 -109l-16 -161q-4 -45 -6 -94.5t-8 -102.5q-4 -41 -4 -72v-77q-1 -40 -2 -82q0 -21 1 -43q1 -66 7 -166l12 -105q8 -47 8 -77.5t4 -30.5q51 0 100.5 23.5t86.5 51 t59.5 50t24.5 20.5l26 -33q-41 -51 -91 -83.5t-93 -51t-72.5 -25t-29.5 -3.5q-14 -55 -29.5 -80t-48.5 -25q-23 0 -40.5 11.5t-27.5 27.5q-8 12 -13 30l-16 52q-82 8 -159.5 25.5t-139.5 39.5q-47 16 -104 40t-104 49q-94 -141 -218 -208t-284 -67q-72 0 -140.5 16.5 t-128 46t-108.5 72.5t-82 97q-29 50 -29 89q-1 16 4 30zM358 894q-11 -27 -10 -58q0 -70 53 -160q53 -88 155.5 -173t242.5 -163l18 33q18 31 37.5 75t40 90t37 90t29.5 74q16 43 23 62.5t13 48.5l-23 11q-24 11 -63 29.5t-88 40t-100 40t-98 32t-80 13.5h-7 q-146 0 -180 -85zM852 313q41 -18 75 -33.5t66 -27.5q55 -23 153.5 -47.5t203.5 -40.5q-2 16 -3 27.5t-2.5 23.5t-1.5 29v41v38q0 22 -1 44t-2 43.5t-1 35.5l-2 37q0 14 -14 35t-34.5 41.5t-43 42t-41.5 39.5q-25 23 -50.5 46.5t-47 42t-35.5 28.5l-14 10 q-10 -14 -17.5 -36.5t-17.5 -45.5q-14 -33 -31.5 -88t-38.5 -94l-51 -94q-14 -29 -22.5 -43.5t-13.5 -23.5t-7 -15.5t-6 -14.5zM1065 807q16 -12 32.5 -23.5t41.5 -31.5q59 -49 106 -98.5t88 -98.5q2 12 3 19.5t3 15.5q0 12 -1 38v18q0 20 1 46q0 23 1 53.5t2 62.5t2.5 60.5 t5.5 49.5q0 6 2 30.5t4 55t5 61.5t7 49q10 49 20 101q14 80 14 101q0 5 -2 11q-3 10 -7 19q-4 8 -9.5 9t-9.5 1q-8 0 -26.5 -10.5t-49.5 -51.5q-29 -39 -45 -75.5t-45 -90.5q-8 -16 -26.5 -57t-38 -84t-34.5 -79t-15 -38q-10 -16 -17.5 -34.5t-11.5 -28.5z" />
<glyph unicode="&#xc8;" horiz-adv-x="1099" d="M350 1890q0 39 37 39q43 0 63 -49q18 -47 27 -162q4 -63 4 -68.5t2 -13.5h-22q-25 43 -43 82l-31 59q-37 74 -37 113zM-27 474q-1 18 -1 36q0 80 30 152q37 88 118 156.5t199 103.5q-47 29 -71.5 52t-52.5 58l-17 21q-46 75 -46 146q0 11 1 23q8 83 64.5 147.5t159 104 t239.5 39.5q147 0 268 -52t183 -144q18 -29 26 -90q2 -12 2 -25q0 -55 -28 -135l-5 -14l-55 26l4 11q14 33 14 65q0 21 -6 41q-14 53 -47 100q-53 78 -133 119t-166 41q-92 0 -169.5 -43t-110.5 -119q-18 -31 -25 -70q-4 -24 -4 -49q0 -16 2 -33q4 -42 16.5 -84t34.5 -75 l21 -31q41 4 56 8.5t30 4.5q57 0 100 -17.5t62 -46.5q18 -29 -7.5 -50.5t-87.5 -21.5q-39 0 -77.5 11.5t-102.5 33.5q-88 -23 -146.5 -84t-81.5 -144q-15 -52 -15 -108q0 -35 6 -71q14 -96 73 -186q141 -219 428 -220q190 0 325.5 78t182.5 217l70 -43l-8 -14 q-152 -301 -611 -301q-195 0 -337 72.5t-234 210.5q-62 94 -70 193z" />
<glyph unicode="&#xcc;" horiz-adv-x="1134" d="M797 1817q0 39 37 39q43 0 63 -49q18 -47 27 -162q4 -63 4 -68.5t2 -13.5h-22q-25 43 -43 82l-31 59q-37 74 -37 113zM69 159q19 32 61 57.5t96.5 40.5t101.5 17q35 4 126 8q21 1 43 0q74 0 162 -8l9 41q10 43 12 86q1 14 1 29q0 28 -3 55q-2 47 -8 100.5t-8 98.5 q-2 30 -3 61q0 23 1 46q3 53 12 106q4 47 17 96t24 78q18 47 41.5 92t68.5 105l13 22q-344 -55 -464 -165q-62 -57 -63 -125q0 -64 53 -138q37 -51 85.5 -81.5t134.5 -59.5l8 -31q-213 18 -344 197q-55 77 -56 143q0 235 711 322q41 39 75 56t81 17q23 0 36 -5t23 -17 q7 -9 7 -19q0 -19 -28 -35q-42 -26 -139 -46l-34 -7q-12 -14 -14.5 -24t-12.5 -29q-16 -55 -24.5 -101t-12.5 -101q-3 -43 -3 -98v-28q1 -72 7 -178q2 -53 3 -96q0 -33 -2 -61q-3 -66 -5 -121q-4 -31 -6 -54.5t-6 -47t-9.5 -50t-13.5 -63.5q68 -6 111 -10.5t90 -4.5 q66 0 122 33t93 100l47 -26q-35 -51 -91 -98.5t-148 -55.5q-23 -2 -47 -1q-35 0 -69 3q-58 6 -136 23q-27 -39 -62 -76t-82 -65.5t-108.5 -47t-141.5 -20.5q-135 0 -212.5 22.5t-114.5 73.5q-14 18 -14 36q0 15 9 29zM186 100q16 -23 63.5 -36t104.5 -17q11 -1 23 0l141 22 q82 26 123 154l-121 6q-41 0 -79 -4t-72 -8q-109 -12 -160 -46q-33 -22 -33 -45q0 -13 10 -26z" />
<glyph unicode="&#xd2;" horiz-adv-x="1122" d="M373 1817q0 39 37 39q43 0 63 -49q18 -47 27 -162q4 -63 4 -68.5t2 -13.5h-22q-25 43 -43 82l-31 59q-37 74 -37 113zM0 672q0 121 29.5 243.5t95.5 227.5q41 68 102.5 123t130 94t137 59.5t123.5 20.5q92 0 165 -35t118 -107q37 -56 37 -107q0 -57 -47 -93 q74 -121 98 -259q11 -64 12 -136q0 -83 -16 -177q-8 -41 -14 -73.5t-14.5 -61.5t-19.5 -57.5t-28 -61.5q-80 -141 -176 -204.5t-207 -67.5q-127 0 -233.5 64.5t-183.5 187.5q-51 78 -80 188.5t-29 231.5zM185 618q9 -135 41 -246.5t73 -174.5q84 -135 227 -136q51 0 98.5 24 t85.5 58.5t66.5 75.5t42.5 76t24.5 76t14.5 75q13 71 13 154v12q-1 90 -16 177.5t-43 166t-62 134.5q-35 51 -71 75.5t-83 24.5q-63 0 -114.5 -53.5t-90.5 -137.5q-14 -41 -22.5 -87t-16.5 -91l-53 25v17q0 51 10 100q12 57 37 104q47 86 111.5 141.5t146.5 55.5 q80 0 139.5 -31t118.5 -98q15 13 15 36v11q-4 31 -27 63q-41 66 -112.5 103.5t-151.5 37.5q-92 0 -172 -56t-140 -152q-59 -131 -78 -278q-13 -99 -14 -193q0 -46 3 -89z" />
<glyph unicode="&#xd9;" horiz-adv-x="1542" d="M-242 2091q0 39 37 39q43 0 63 -49q18 -47 27 -162q4 -63 4 -68.5t2 -13.5h-22q-25 43 -43 82l-31 59q-37 74 -37 113zM-346 1369q-1 14 -1 27q0 83 34 149q39 77 120.5 123t196.5 46q135 0 256 -80t213 -237q45 -78 73.5 -157t42.5 -165q12 -75 11 -155v-25 q-2 -94 -16 -203q-6 -47 -16.5 -103.5t-20.5 -113.5t-19.5 -111.5t-11.5 -95.5q0 -37 1 -75.5t15 -71.5q16 -29 40 -42t49 -13q47 0 101 43t105.5 113.5t93.5 162.5t66 190q6 16 8 27.5t2 27.5v37v60q4 82 14.5 156.5t18.5 111.5q10 47 41 69.5t76 22.5t59 -26 q16 -25 16.5 -66t-28.5 -110q-6 -16 -12 -43t-12.5 -58.5t-10.5 -62.5t-6 -53l-4 -119q-4 -74 -5 -129v-16q0 -49 5 -111q4 -53 14.5 -90t26.5 -66q23 -39 54.5 -58.5t66.5 -19.5q80 25 150.5 90.5t119.5 157.5l51 -41q-23 -39 -54.5 -83t-72.5 -83t-93 -66.5t-116 -33.5 q-84 0 -149.5 40t-108.5 114q-29 45 -40 88t-15 120q-20 -66 -54 -130t-81 -116.5t-104.5 -85t-125.5 -32.5q-70 0 -130 34t-99 99q-18 31 -28.5 65.5t-13.5 78.5q-1 17 -1 36q0 31 3 68q5 59 20 141q45 236 61 392q15 139 15 244q0 13 -1 26q-4 61 -24.5 136t-50.5 128 q-59 104 -148.5 164.5t-185.5 60.5q-74 0 -137.5 -30.5t-98.5 -84.5q-27 -41 -41 -93q-15 -56 -15 -116q0 -51 11 -102q12 -55 41 -102q43 -74 106.5 -114t141.5 -40q45 0 67.5 13.5t43.5 41.5l36 -32q-25 -39 -54.5 -52.5t-78.5 -13.5q-104 0 -190 57.5t-146 161.5 q-61 105 -67 204z" />
<glyph unicode="&#xe0;" horiz-adv-x="686" d="M-41 850q0 39 37 39q43 0 63 -49q18 -47 27 -162q4 -63 4 -68.5t2 -13.5h-22q-25 43 -43 82l-31 59q-37 74 -37 113zM3 200q-2 18 -2 35q0 40 11 74q14 35 39 66t53 51q25 20 53.5 29.5t55.5 9.5q37 0 62.5 -14.5t43.5 -40.5q4 -8 10.5 -16.5t12.5 -20.5l33 80h92 l-12 -301q-2 -18 -3 -32q0 -23 7 -32q14 -20 45 -20q25 0 54.5 17t58 47t54 70t42.5 85l51 -35l-8 -8q-57 -123 -125 -183.5t-158 -60.5q-35 0 -65.5 14.5t-47.5 36.5q-8 12 -9 20.5t-5 26.5q-29 -59 -71 -78.5t-85 -19.5q-39 0 -78.5 25.5t-68.5 66.5q-33 48 -40 108z M131 215q2 -35 11.5 -65.5t21.5 -49.5q23 -29 55 -28q23 0 46.5 9t35.5 42q4 16 6 38.5t6 39.5q5 38 6 71q0 17 -2 32q-4 46 -24 77q-23 35 -60 35h-6q-23 -4 -39 -22.5t-30 -43.5q-18 -29 -24 -64q-4 -26 -4 -51q0 -10 1 -20z" />
<glyph unicode="&#xe8;" horiz-adv-x="483" d="M27 850q0 39 37 39q43 0 63 -49q18 -47 27 -162q4 -63 4 -68.5t2 -13.5h-22q-25 43 -43 82l-31 59q-37 74 -37 113zM4 192.5q0 45.5 19 98.5q20 45 55 82t78 65q31 14 60.5 24.5t55.5 10.5q29 0 53.5 -16.5t36.5 -42.5q8 -18 10.5 -36t-9 -38.5t-37 -44t-70.5 -53.5 l-113 -76q2 -10 5 -20l8 -21q16 -33 39.5 -47.5t60.5 -14.5q59 4 100 33q43 31 83 75t75 114l41 -37l-8 -10q-43 -76 -90 -124t-95 -77q-74 -37 -153 -37q-131 0 -180 100q-25 47 -25 92.5zM147 236q55 20 103 65q35 33 42 52q3 8 3 16q0 12 -6 24q-10 20 -37 21 q-35 0 -62 -47q-16 -25 -26.5 -59.5t-16.5 -71.5z" />
<glyph unicode="&#xec;" horiz-adv-x="411" d="M-103 1333q0 39 37 39q43 0 63 -49q18 -47 27 -162q4 -63 4 -68.5t2 -13.5h-22q-25 43 -43 82l-31 59q-37 74 -37 113zM4 223q8 23 14.5 40.5t18.5 53.5q14 41 17 66t9 66h132v-324q0 -12 4 -19.5t12 -17.5q4 -6 19.5 -13t33.5 -7q20 0 45 18t49.5 48t45 69t32.5 82 l49 -33l-4 -12q-90 -240 -235 -240q-45 0 -87 21.5t-71 58.5q-27 37 -25 94l-6 53l-18 -24zM68 870q-2 10 -3 19q0 25 17 43q23 25 61 24q29 0 47 -13q21 -15 21 -49q0 -25 -12 -47q-14 -26 -56 -28q-65 0 -75 51z" />
<glyph unicode="&#xf2;" horiz-adv-x="616" d="M-14 850q0 39 37 39q43 0 63 -49q18 -47 27 -162q4 -63 4 -68.5t2 -13.5h-22q-25 43 -43 82l-31 59q-37 74 -37 113zM-6 236q4 72 49 126q14 23 33.5 37.5t36.5 30.5q57 43 118 43q59 0 109.5 -31.5t85.5 -87.5q6 -10 9 -17t6 -16.5t7.5 -22.5t10.5 -36q4 -12 9 -19 t9 -16q10 -16 32.5 -29.5t39.5 -13.5q33 0 52.5 22.5t43.5 82.5l49 -37q-29 -70 -54.5 -91.5t-66.5 -21.5q-57 0 -127 49l-4 -18l-18 -41q-12 -23 -29.5 -49.5t-48.5 -44.5q-29 -20 -60.5 -27.5t-72.5 -7.5q-121 0 -184 104q-35 54 -36 118q1 7 1 14zM131 264q-2 -22 -2 -42 q0 -72 29 -118q29 -45 73 -45q23 0 54.5 16.5t48.5 43.5q19 30 18 67q0 15 -1 48.5t-1 54.5q-12 16 -23.5 27.5t-17.5 21.5q-10 18 -12 30.5t-2 28.5q-14 14 -24.5 17.5t-26.5 3.5t-31.5 -6t-26.5 -19q-8 -10 -14 -17t-12 -20q-23 -39 -29 -92z" />
<glyph unicode="&#xf9;" horiz-adv-x="745" d="M29 850q0 39 37 39q43 0 63 -49q18 -47 27 -162q4 -63 4 -68.5t2 -13.5h-22q-25 43 -43 82l-31 59q-37 74 -37 113zM-4 225l4 11q4 10 11 25t14.5 32.5t11.5 32.5q16 51 17 72.5t5 54.5h136v-199v-41q0 -27 1 -54.5t4 -50t9 -30.5q12 -12 24.5 -18.5t34.5 -6.5 q23 0 44.5 17.5t39 48.5t26.5 70.5t9 84.5l6 179h135l-6 -301q0 -16 2 -34t11 -28q10 -14 19 -19t28 -5q23 0 50 18t53 49t48.5 71t34.5 83l53 -35l-4 -12q-49 -125 -113.5 -182.5t-148.5 -57.5t-135 68q-4 4 -6 12t-6 18q-35 -53 -72 -75.5t-90 -22.5q-102 0 -164 80 q-23 33 -28 62q-3 16 -3 43q0 21 2 48l-22 -30z" />
<glyph unicode="&#x152;" horiz-adv-x="2222" d="M1095 474q-1 18 -1 36q0 80 30 152q37 88 118 156.5t199 103.5q-47 29 -71.5 52t-52.5 58l-17 21q-46 75 -46 146q0 11 1 23q8 83 64.5 147.5t159 104t239.5 39.5q147 0 268 -52t183 -144q18 -29 26 -90q2 -12 2 -25q0 -55 -28 -135l-5 -14l-55 26l4 11q14 33 14 65 q0 21 -6 41q-14 53 -47 100q-53 78 -133 119t-166 41q-92 0 -169.5 -43t-110.5 -119q-18 -31 -25 -70q-4 -24 -4 -49q0 -16 2 -33q4 -42 16.5 -84t34.5 -75l21 -31q41 4 56 8.5t30 4.5q57 0 100 -17.5t62 -46.5q18 -29 -7.5 -50.5t-87.5 -21.5q-39 0 -77.5 11.5t-102.5 33.5 q-88 -23 -146.5 -84t-81.5 -144q-15 -52 -15 -108q0 -35 6 -71q14 -96 73 -186q141 -219 428 -220q190 0 325.5 78t182.5 217l70 -43l-8 -14q-152 -301 -611 -301q-195 0 -337 72.5t-234 210.5q-62 94 -70 193zM0 672q0 121 29.5 243.5t95.5 227.5q41 68 102.5 123t130 94 t137 59.5t123.5 20.5q92 0 165 -35t118 -107q37 -56 37 -107q0 -57 -47 -93q74 -121 98 -259q11 -64 12 -136q0 -83 -16 -177q-8 -41 -14 -73.5t-14.5 -61.5t-19.5 -57.5t-28 -61.5q-80 -141 -176 -204.5t-207 -67.5q-127 0 -233.5 64.5t-183.5 187.5q-51 78 -80 188.5 t-29 231.5zM185 618q9 -135 41 -246.5t73 -174.5q84 -135 227 -136q51 0 98.5 24t85.5 58.5t66.5 75.5t42.5 76t24.5 76t14.5 75q13 71 13 154v12q-1 90 -16 177.5t-43 166t-62 134.5q-35 51 -71 75.5t-83 24.5q-63 0 -114.5 -53.5t-90.5 -137.5q-14 -41 -22.5 -87 t-16.5 -91l-53 25v17q0 51 10 100q12 57 37 104q47 86 111.5 141.5t146.5 55.5q80 0 139.5 -31t118.5 -98q15 13 15 36v11q-4 31 -27 63q-41 66 -112.5 103.5t-151.5 37.5q-92 0 -172 -56t-140 -152q-59 -131 -78 -278q-13 -99 -14 -193q0 -46 3 -89z" />
<glyph unicode="&#x153;" horiz-adv-x="1099" d="M620 192.5q0 45.5 19 98.5q20 45 55 82t78 65q31 14 60.5 24.5t55.5 10.5q29 0 53.5 -16.5t36.5 -42.5q8 -18 10.5 -36t-9 -38.5t-37 -44t-70.5 -53.5l-113 -76q2 -10 5 -20l8 -21q16 -33 39.5 -47.5t60.5 -14.5q59 4 100 33q43 31 83 75t75 114l41 -37l-8 -10 q-43 -76 -90 -124t-95 -77q-74 -37 -153 -37q-131 0 -180 100q-25 47 -25 92.5zM763 236q55 20 103 65q35 33 42 52q3 8 3 16q0 12 -6 24q-10 20 -37 21q-35 0 -62 -47q-16 -25 -26.5 -59.5t-16.5 -71.5zM-6 236q4 72 49 126q14 23 33.5 37.5t36.5 30.5q57 43 118 43 q59 0 109.5 -31.5t85.5 -87.5q6 -10 9 -17t6 -16.5t7.5 -22.5t10.5 -36q4 -12 9 -19t9 -16q10 -16 32.5 -29.5t39.5 -13.5q33 0 52.5 22.5t43.5 82.5l49 -37q-29 -70 -54.5 -91.5t-66.5 -21.5q-57 0 -127 49l-4 -18l-18 -41q-12 -23 -29.5 -49.5t-48.5 -44.5 q-29 -20 -60.5 -27.5t-72.5 -7.5q-121 0 -184 104q-35 54 -36 118q1 7 1 14zM131 264q-2 -22 -2 -42q0 -72 29 -118q29 -45 73 -45q23 0 54.5 16.5t48.5 43.5q19 30 18 67q0 15 -1 48.5t-1 54.5q-12 16 -23.5 27.5t-17.5 21.5q-10 18 -12 30.5t-2 28.5q-14 14 -24.5 17.5 t-26.5 3.5t-31.5 -6t-26.5 -19q-8 -10 -14 -17t-12 -20q-23 -39 -29 -92z" />
<glyph unicode="&#x2000;" horiz-adv-x="1064" />
<glyph unicode="&#x2001;" horiz-adv-x="2129" />
<glyph unicode="&#x2002;" horiz-adv-x="1064" />
<glyph unicode="&#x2003;" horiz-adv-x="2129" />
<glyph unicode="&#x2004;" horiz-adv-x="708" />
<glyph unicode="&#x2005;" horiz-adv-x="532" />
<glyph unicode="&#x2006;" horiz-adv-x="354" />
<glyph unicode="&#x2007;" horiz-adv-x="354" />
<glyph unicode="&#x2008;" horiz-adv-x="266" />
<glyph unicode="&#x2009;" horiz-adv-x="425" />
<glyph unicode="&#x200a;" horiz-adv-x="116" />
<glyph unicode="&#x2010;" d="M84 199v67h367v-67h-367z" />
<glyph unicode="&#x2011;" d="M84 199v67h367v-67h-367z" />
<glyph unicode="&#x2012;" d="M84 199v67h367v-67h-367z" />
<glyph unicode="&#x2013;" horiz-adv-x="1024" d="M84 199v67h874v-67h-874z" />
<glyph unicode="&#x2014;" horiz-adv-x="2048" d="M84 199v67h1898v-67h-1898z" />
<glyph unicode="&#x2018;" horiz-adv-x="294" d="M133 981q0 39 37 39q43 0 63 -49q18 -47 27 -162q4 -63 4 -68.5t2 -13.5h-22q-25 43 -43 82l-31 59q-37 74 -37 113z" />
<glyph unicode="&#x2019;" horiz-adv-x="294" d="M141 727q2 8 2 13t4 69q8 115 27 162q20 49 64 49q37 0 36 -39q0 -39 -36 -113l-31 -59q-18 -39 -43 -82h-23z" />
<glyph unicode="&#x201c;" horiz-adv-x="860" d="M193 936q0 90 59 86q57 0 53 -84q-4 -78 -31 -127q-27 -53 -28 -82h-23l2 19l-10 63q-20 82 -22 125zM395 936q-4 78 60 86q57 -6 51 -84q-4 -78 -29 -127q-27 -53 -28 -82h-23l2 19l-10 63q-21 82 -23 125z" />
<glyph unicode="&#x201d;" horiz-adv-x="860" d="M150 678q109 86 102 149q-6 29 -31 50q-37 29 -39 63q-6 33 15 57q14 23 45 23q59 0 71 -86q6 -72 -34 -146q-39 -74 -115 -129zM352 676q109 86 103 149q-6 29 -31 49q-37 29 -39 64q-6 33 14 57q14 23 45 23q59 0 72 -86q6 -72 -35 -146q-39 -74 -114 -129z" />
<glyph unicode="&#x201e;" horiz-adv-x="860" d="M150 -219q109 86 102 149q-6 29 -31 50q-37 29 -39 63q-6 33 15 57q14 23 45 23q59 0 71 -86q6 -72 -34 -146q-39 -74 -115 -129zM352 -221q109 86 103 149q-6 29 -31 49q-37 29 -39 64q-6 33 14 57q14 23 45 23q59 0 72 -86q6 -72 -35 -146q-39 -74 -114 -129z" />
<glyph unicode="&#x2026;" horiz-adv-x="1517" d="M1196 51q4 68 64 72q66 -6 71 -72q-2 -68 -71 -71q-60 5 -64 71zM690 51q4 68 64 72q66 -6 71 -72q-2 -68 -71 -71q-60 5 -64 71zM184 51q4 68 64 72q66 -6 71 -72q-2 -68 -71 -71q-60 5 -64 71z" />
<glyph unicode="&#x202f;" horiz-adv-x="425" />
<glyph unicode="&#x205f;" horiz-adv-x="532" />
<glyph unicode="&#x2122;" horiz-adv-x="3473" d="M762 1030q-1 14 -1 29q0 99 50 184q51 92 155.5 142.5t227.5 50.5q238 0 391 -217q39 -53 65.5 -114t37.5 -110q162 315 372 316q78 0 149.5 -42t129.5 -122q23 -35 36 -64.5t19 -74.5q176 295 385 295q76 0 146.5 -42t121.5 -114q29 -43 45.5 -88t22.5 -110q4 -39 4 -86 q0 -32 -2 -68q-4 -90 -16 -220q-7 -87 -7 -153q0 -55 5 -96q10 -90 45 -142q61 -90 149 -90q29 0 72 42t83 92.5t67 93.5l28 43l55 -41l-13 -24q-13 -24 -36.5 -58.5t-57.5 -74.5t-72 -75t-80 -59.5t-85 -24.5h-6q-73 0 -147 49q-78 51 -142 144q-47 70 -60 150 q-8 46 -8 102q0 43 5 94l16 164q10 117 13 193q1 26 0 49q0 46 -3 79q-4 51 -14 81t-24 52q-49 72 -125 72q-49 0 -99.5 -34t-97.5 -93t-87 -139t-65 -172l-10 -410q-1 -29 -1 -54v-26q1 -37 -1 -57q0 -70 -6 -116t-16.5 -74.5t-27.5 -41t-42 -12.5q-31 0 -49.5 10.5 t-36.5 36.5q-18 25 -27.5 70t-10.5 106v16q0 55 6 120q7 74 22 155q6 31 8 59.5t2 65.5t-1 86t-3 117q-2 59 -2 104t-4 74q-4 39 -10.5 78t-24.5 65q-49 72 -129 72q-86 0 -186 -129q-35 -47 -61.5 -91t-45 -93t-30 -105.5t-13.5 -126.5l-12 -321q-4 -203 -32 -289t-73 -86 q-25 0 -52.5 16.5t-43.5 36.5q-12 18 -20.5 57.5t-9.5 86.5v15q0 40 4 83q5 51 18 98l22 101q12 51 14.5 114.5t4.5 100.5q2 66 3 111v23q0 33 -2 59q-3 36 -7 64.5t-11 59.5q-29 125 -98 225q-45 63 -100 96t-115 33q-123 0 -207 -63.5t-100 -171.5q-4 -33 -4 -67 q0 -53 10 -107q16 -88 70 -162q35 -49 78 -77.5t88 -28.5q49 0 80.5 55t44.5 149l47 -24v-20q0 -106 -40 -164q-44 -62 -139 -62q-74 0 -152.5 46t-137.5 132q-68 98 -76 213zM-338 1024q-6 34 -6 66q0 72 33 131q47 84 158.5 132t279.5 48q51 0 100 -2t105.5 -10.5 t128 -21.5t168.5 -34q109 -25 185 -38q67 -12 77 -11h2q55 35 104.5 62.5t126.5 44.5q41 8 78 11q16 1 32 1q22 0 44 -2q66 -8 113 -21.5t73 -46.5q13 -17 13 -33q0 -27 -37 -51q-59 -37 -189 -57l-24 -2q-43 -9 -83 -9h-7q-43 1 -103 1h-53q-25 0 -72 4q-16 -37 -24 -76 t-9 -89q0 -8 -1 -17q0 -44 5 -98q5 -65 17 -154q12 -104 17 -182q4 -64 5 -116v-20q-1 -59 -9.5 -109.5t-22.5 -99.5q-39 -119 -118 -172t-218 -53q-147 0 -280.5 66.5t-225.5 185.5q-45 60 -45 102q0 8 2 16q10 46 72 46q61 0 125.5 -34t107.5 -93q10 -12 16.5 -25.5 t6.5 -19.5q16 -33 5 -59.5t-34 -26.5h-33q-4 0 -5 -8.5t5 -18.5q8 -8 20.5 -17.5t28.5 -19.5q49 -29 102.5 -40t104.5 -11q57 0 97.5 18.5t65 61.5t33.5 115q6 50 6 116q0 29 -1 62l-12 178q-1 32 -1 64t1 65q2 66 6 127t11 114.5t18 90.5q10 35 24 63.5t49 73.5 q-37 6 -62.5 9t-48 5t-45 5t-53.5 8l-247 43q-98 16 -171 25t-126 9q-131 0 -214 -39.5t-114 -109.5q-17 -39 -17 -87q0 -36 10 -77q24 -94 103 -201q72 -96 159 -145t177 -49q74 0 122 27.5t68 78.5q14 35 15 80q0 20 -3 42q-9 71 -50 155l57 -4q45 -90 55 -169 q3 -23 3 -45q0 -51 -17 -93q-25 -58 -80 -90.5t-137 -32.5q-111 0 -225.5 65.5t-200.5 179.5q-97 129 -117 242zM985 1270q70 -16 127 -21.5t100 -5.5q90 10 137 29q35 14 35 27q0 4 -4 8q-14 20 -51 28t-90 8q-66 -4 -128.5 -18t-125.5 -55z" />
<glyph unicode="&#xe000;" horiz-adv-x="470" d="M0 470h470v-470h-470v470z" />
<glyph unicode="&#xfb01;" horiz-adv-x="835" d="M428 223q8 23 14.5 40.5t18.5 53.5q14 41 17 66t9 66h132v-324q0 -12 4 -19.5t12 -17.5q4 -6 19.5 -13t33.5 -7q20 0 45 18t49.5 48t45 69t32.5 82l49 -33l-4 -12q-90 -240 -235 -240q-45 0 -87 21.5t-71 58.5q-27 37 -25 94l-6 53l-18 -24zM492 870q-2 10 -3 19 q0 25 17 43q23 25 61 24q29 0 47 -13q21 -15 21 -49q0 -25 -12 -47q-14 -26 -56 -28q-65 0 -75 51zM-20 172q12 29 19 45t11 45l8 21q-19 51 -19 75q0 7 2 12q7 22 54 36q-2 10 -2 14t2 14q0 23 2 85q0 12 1 27q0 57 -7 142q0 59 5 131t12.5 144.5t16.5 140t19 121.5 q18 100 43 141t62 41q16 0 33.5 -11.5t29.5 -29.5q18 -25 25 -63q3 -21 3 -49q0 -23 -2 -49q-5 -58 -22.5 -140t-48.5 -195q-10 -45 -16 -73.5t-10 -51t-7.5 -45t-7.5 -55.5l-2 -35l4 -176l2 -39h324l2 -43h-334l-4 -342q37 -117 72 -259t69 -302q29 -131 40.5 -259 t23.5 -257q9 -102 8 -180q0 -91 -11 -151q-22 -110 -112 -109q-41 0 -94 21.5t-76 76.5q-14 35 -21 65.5t-11.5 65.5t-7.5 79t-7 105q-10 136 -10 274q0 34 1 69q3 173 3 339q0 113 1 184.5t3 131t4 123t2 163.5l-45 -40zM158 -823.5q0 -75.5 1 -144t4 -127t5 -95.5 q6 -51 12 -100t17.5 -88t30 -62.5t48.5 -23.5q31 0 50 37q17 33 16 94v14q1 24 1 50q0 52 -3 112q-4 90 -13.5 188.5t-22.5 201.5t-30 202q-4 29 -20 103.5t-45 199.5l-45 196v-266v-163q0 -62 -1 -100t-3 -79q-2 -74 -2 -149.5z" />
<glyph unicode="&#xfb02;" horiz-adv-x="835" d="M426 223q8 23 15.5 41.5t17.5 54.5q12 41 20 66t13 66q4 111 7 192.5t4 143t1 108.5v88q0 96 2 162.5t10 107.5t23.5 58.5t38.5 17.5q35 0 61 -37q23 -29 28 -113q1 -20 1 -42q0 -69 -13 -154l-34 -246q-2 -16 -3 -35.5t-1 -42.5l-7 -264q-4 -94 -5 -162v-25q0 -50 3 -83 q-2 -4 4.5 -15.5t10.5 -17.5q4 -8 18 -16t31 -8q25 0 53.5 17t55 47t48 70t33.5 87l58 -37l-7 -10q-98 -242 -266 -242q-41 0 -80 21.5t-67 60.5q-18 29 -24 54q-2 12 -2 30q0 22 3 55l-20 -18zM-20 172q12 29 19 45t11 45l8 21q-19 51 -19 75q0 7 2 12q7 22 54 36 q-2 10 -2 14t2 14q0 23 2 85q0 12 1 27q0 57 -7 142q0 59 5 131t12.5 144.5t16.5 140t19 121.5q18 100 43 141t62 41q16 0 33.5 -11.5t29.5 -29.5q18 -25 25 -63q3 -21 3 -49q0 -23 -2 -49q-5 -58 -22.5 -140t-48.5 -195q-10 -45 -16 -73.5t-10 -51t-7.5 -45t-7.5 -55.5 l-2 -35l4 -176l2 -39h324l2 -43h-334l-4 -342q37 -117 72 -259t69 -302q29 -131 40.5 -259t23.5 -257q9 -102 8 -180q0 -91 -11 -151q-22 -110 -112 -109q-41 0 -94 21.5t-76 76.5q-14 35 -21 65.5t-11.5 65.5t-7.5 79t-7 105q-10 136 -10 274q0 34 1 69q3 173 3 339 q0 113 1 184.5t3 131t4 123t2 163.5l-45 -40zM158 -823.5q0 -75.5 1 -144t4 -127t5 -95.5q6 -51 12 -100t17.5 -88t30 -62.5t48.5 -23.5q31 0 50 37q17 33 16 94v14q1 24 1 50q0 52 -3 112q-4 90 -13.5 188.5t-22.5 201.5t-30 202q-4 29 -20 103.5t-45 199.5l-45 196v-266 v-163q0 -62 -1 -100t-3 -79q-2 -74 -2 -149.5z" />
<glyph unicode="&#xfb03;" horiz-adv-x="1259" d="M852 223q8 23 14.5 40.5t18.5 53.5q14 41 17 66t9 66h132v-324q0 -12 4 -19.5t12 -17.5q4 -6 19.5 -13t33.5 -7q20 0 45 18t49.5 48t45 69t32.5 82l49 -33l-4 -12q-90 -240 -235 -240q-45 0 -87 21.5t-71 58.5q-27 37 -25 94l-6 53l-18 -24zM916 870q-2 10 -3 19 q0 25 17 43q23 25 61 24q29 0 47 -13q21 -15 21 -49q0 -25 -12 -47q-14 -26 -56 -28q-65 0 -75 51zM404 172q12 29 19 45t11 45l8 21q-19 51 -19 75q0 7 2 12q7 22 54 36q-2 10 -2 14t2 14q0 23 2 85q0 12 1 27q0 57 -7 142q0 59 5 131t12.5 144.5t16.5 140t19 121.5 q18 100 43 141t62 41q16 0 33.5 -11.5t29.5 -29.5q18 -25 25 -63q3 -21 3 -49q0 -23 -2 -49q-5 -58 -22.5 -140t-48.5 -195q-10 -45 -16 -73.5t-10 -51t-7.5 -45t-7.5 -55.5l-2 -35l4 -176l2 -39h324l2 -43h-334l-4 -342q37 -117 72 -259t69 -302q29 -131 40.5 -259 t23.5 -257q9 -102 8 -180q0 -91 -11 -151q-22 -110 -112 -109q-41 0 -94 21.5t-76 76.5q-14 35 -21 65.5t-11.5 65.5t-7.5 79t-7 105q-10 136 -10 274q0 34 1 69q3 173 3 339q0 113 1 184.5t3 131t4 123t2 163.5l-45 -40zM582 -823.5q0 -75.5 1 -144t4 -127t5 -95.5 q6 -51 12 -100t17.5 -88t30 -62.5t48.5 -23.5q31 0 50 37q17 33 16 94v14q1 24 1 50q0 52 -3 112q-4 90 -13.5 188.5t-22.5 201.5t-30 202q-4 29 -20 103.5t-45 199.5l-45 196v-266v-163q0 -62 -1 -100t-3 -79q-2 -74 -2 -149.5zM-20 172q12 29 19 45t11 45l8 21 q-19 51 -19 75q0 7 2 12q7 22 54 36q-2 10 -2 14t2 14q0 23 2 85q0 12 1 27q0 57 -7 142q0 59 5 131t12.5 144.5t16.5 140t19 121.5q18 100 43 141t62 41q16 0 33.5 -11.5t29.5 -29.5q18 -25 25 -63q3 -21 3 -49q0 -23 -2 -49q-5 -58 -22.5 -140t-48.5 -195 q-10 -45 -16 -73.5t-10 -51t-7.5 -45t-7.5 -55.5l-2 -35l4 -176l2 -39h324l2 -43h-334l-4 -342q37 -117 72 -259t69 -302q29 -131 40.5 -259t23.5 -257q9 -102 8 -180q0 -91 -11 -151q-22 -110 -112 -109q-41 0 -94 21.5t-76 76.5q-14 35 -21 65.5t-11.5 65.5t-7.5 79 t-7 105q-10 136 -10 274q0 34 1 69q3 173 3 339q0 113 1 184.5t3 131t4 123t2 163.5l-45 -40zM158 -823.5q0 -75.5 1 -144t4 -127t5 -95.5q6 -51 12 -100t17.5 -88t30 -62.5t48.5 -23.5q31 0 50 37q17 33 16 94v14q1 24 1 50q0 52 -3 112q-4 90 -13.5 188.5t-22.5 201.5 t-30 202q-4 29 -20 103.5t-45 199.5l-45 196v-266v-163q0 -62 -1 -100t-3 -79q-2 -74 -2 -149.5z" />
<glyph unicode="&#xfb04;" horiz-adv-x="1259" d="M850 223q8 23 15.5 41.5t17.5 54.5q12 41 20 66t13 66q4 111 7 192.5t4 143t1 108.5v88q0 96 2 162.5t10 107.5t23.5 58.5t38.5 17.5q35 0 61 -37q23 -29 28 -113q1 -20 1 -42q0 -69 -13 -154l-34 -246q-2 -16 -3 -35.5t-1 -42.5l-7 -264q-4 -94 -5 -162v-25q0 -50 3 -83 q-2 -4 4.5 -15.5t10.5 -17.5q4 -8 18 -16t31 -8q25 0 53.5 17t55 47t48 70t33.5 87l58 -37l-7 -10q-98 -242 -266 -242q-41 0 -80 21.5t-67 60.5q-18 29 -24 54q-2 12 -2 30q0 22 3 55l-20 -18zM404 172q12 29 19 45t11 45l8 21q-19 51 -19 75q0 7 2 12q7 22 54 36 q-2 10 -2 14t2 14q0 23 2 85q0 12 1 27q0 57 -7 142q0 59 5 131t12.5 144.5t16.5 140t19 121.5q18 100 43 141t62 41q16 0 33.5 -11.5t29.5 -29.5q18 -25 25 -63q3 -21 3 -49q0 -23 -2 -49q-5 -58 -22.5 -140t-48.5 -195q-10 -45 -16 -73.5t-10 -51t-7.5 -45t-7.5 -55.5 l-2 -35l4 -176l2 -39h324l2 -43h-334l-4 -342q37 -117 72 -259t69 -302q29 -131 40.5 -259t23.5 -257q9 -102 8 -180q0 -91 -11 -151q-22 -110 -112 -109q-41 0 -94 21.5t-76 76.5q-14 35 -21 65.5t-11.5 65.5t-7.5 79t-7 105q-10 136 -10 274q0 34 1 69q3 173 3 339 q0 113 1 184.5t3 131t4 123t2 163.5l-45 -40zM582 -823.5q0 -75.5 1 -144t4 -127t5 -95.5q6 -51 12 -100t17.5 -88t30 -62.5t48.5 -23.5q31 0 50 37q17 33 16 94v14q1 24 1 50q0 52 -3 112q-4 90 -13.5 188.5t-22.5 201.5t-30 202q-4 29 -20 103.5t-45 199.5l-45 196v-266 v-163q0 -62 -1 -100t-3 -79q-2 -74 -2 -149.5zM-20 172q12 29 19 45t11 45l8 21q-19 51 -19 75q0 7 2 12q7 22 54 36q-2 10 -2 14t2 14q0 23 2 85q0 12 1 27q0 57 -7 142q0 59 5 131t12.5 144.5t16.5 140t19 121.5q18 100 43 141t62 41q16 0 33.5 -11.5t29.5 -29.5 q18 -25 25 -63q3 -21 3 -49q0 -23 -2 -49q-5 -58 -22.5 -140t-48.5 -195q-10 -45 -16 -73.5t-10 -51t-7.5 -45t-7.5 -55.5l-2 -35l4 -176l2 -39h324l2 -43h-334l-4 -342q37 -117 72 -259t69 -302q29 -131 40.5 -259t23.5 -257q9 -102 8 -180q0 -91 -11 -151 q-22 -110 -112 -109q-41 0 -94 21.5t-76 76.5q-14 35 -21 65.5t-11.5 65.5t-7.5 79t-7 105q-10 136 -10 274q0 34 1 69q3 173 3 339q0 113 1 184.5t3 131t4 123t2 163.5l-45 -40zM158 -823.5q0 -75.5 1 -144t4 -127t5 -95.5q6 -51 12 -100t17.5 -88t30 -62.5t48.5 -23.5 q31 0 50 37q17 33 16 94v14q1 24 1 50q0 52 -3 112q-4 90 -13.5 188.5t-22.5 201.5t-30 202q-4 29 -20 103.5t-45 199.5l-45 196v-266v-163q0 -62 -1 -100t-3 -79q-2 -74 -2 -149.5z" />
</font>
</defs>
</svg>
